# 3ds Max Wavefront OBJ Exporter v0.97b - (c)2007 guruware
# File Created: 30.09.2012 22:48:56

#
# object trash_02
#

v  18.7939 1.0000 -6.8404
v  18.7939 75.0000 -6.8404
v  20.0000 75.0000 -0.0000
v  20.0000 1.0000 -0.0000
v  15.3209 1.0000 -12.8558
v  15.3209 75.0000 -12.8558
v  10.0000 1.0000 -17.3205
v  10.0000 75.0000 -17.3205
v  3.4730 1.0000 -19.6962
v  3.4730 75.0000 -19.6962
v  -3.4730 1.0000 -19.6962
v  -3.4730 75.0000 -19.6962
v  -10.0000 1.0000 -17.3205
v  -10.0000 75.0000 -17.3205
v  -15.3209 1.0000 -12.8558
v  -15.3209 75.0000 -12.8558
v  -18.7939 1.0000 -6.8404
v  -18.7939 75.0000 -6.8404
v  -20.0000 1.0000 -0.0000
v  -20.0000 75.0000 -0.0000
v  -18.7939 1.0000 6.8404
v  -18.7939 75.0000 6.8404
v  -15.3209 1.0000 12.8557
v  -15.3209 75.0000 12.8557
v  -10.0000 1.0000 17.3205
v  -10.0000 75.0000 17.3205
v  -3.4730 1.0000 19.6962
v  -3.4730 75.0000 19.6962
v  3.4730 1.0000 19.6962
v  3.4730 75.0000 19.6962
v  10.0000 1.0000 17.3205
v  10.0000 75.0000 17.3205
v  15.3209 1.0000 12.8558
v  15.3209 75.0000 12.8558
v  18.7938 1.0000 6.8404
v  18.7938 75.0000 6.8404
v  10.0401 88.6071 -3.6543
v  10.6845 88.6071 -0.0000
v  15.6808 85.0000 -0.0000
v  14.7351 85.0000 -5.3632
v  8.1848 88.6071 -6.8678
v  12.0122 85.0000 -10.0794
v  5.3422 88.6071 -9.2530
v  7.8404 85.0000 -13.5800
v  1.8553 88.6071 -10.5221
v  2.7229 85.0000 -15.4426
v  -1.8553 88.6071 -10.5221
v  -2.7229 85.0000 -15.4426
v  -5.3422 88.6071 -9.2530
v  -7.8404 85.0000 -13.5800
v  -8.1848 88.6071 -6.8678
v  -12.0122 85.0000 -10.0794
v  -10.0401 88.6071 -3.6543
v  -14.7351 85.0000 -5.3632
v  -10.6845 88.6071 -0.0000
v  -15.6808 85.0000 -0.0000
v  -10.0401 88.6071 3.6543
v  -14.7351 85.0000 5.3631
v  -8.1848 88.6071 6.8678
v  -12.0122 85.0000 10.0794
v  -5.3422 88.6071 9.2530
v  -7.8404 85.0000 13.5800
v  -1.8553 88.6071 10.5221
v  -2.7230 85.0000 15.4426
v  1.8553 88.6071 10.5221
v  2.7229 85.0000 15.4426
v  5.3422 88.6071 9.2530
v  7.8404 85.0000 13.5800
v  8.1848 88.6071 6.8678
v  12.0122 85.0000 10.0794
v  10.0401 88.6071 3.6543
v  14.7351 85.0000 5.3632
v  2.6602 90.4946 -0.9682
v  2.8310 90.4946 -0.0000
v  5.8164 90.1990 -0.0000
v  5.4656 90.1990 -1.9893
v  17.6189 80.0000 -6.4128
v  18.7496 80.0000 0.0000
v  2.1686 90.4946 -1.8197
v  4.4556 90.1990 -3.7387
v  14.3631 80.0000 -12.0520
v  1.4155 90.4946 -2.4517
v  2.9082 90.1990 -5.0372
v  9.3748 80.0000 -16.2377
v  0.4916 90.4946 -2.7880
v  1.0100 90.1990 -5.7281
v  3.2558 80.0000 -18.4648
v  -0.4916 90.4946 -2.7880
v  -1.0100 90.1990 -5.7281
v  -3.2558 80.0000 -18.4648
v  -1.4155 90.4946 -2.4517
v  -2.9082 90.1990 -5.0372
v  -9.3748 80.0000 -16.2377
v  -2.1686 90.4946 -1.8197
v  -4.4556 90.1990 -3.7387
v  -14.3631 80.0000 -12.0520
v  -2.6602 90.4946 -0.9682
v  -5.4656 90.1990 -1.9893
v  -17.6189 80.0000 -6.4128
v  -2.8310 90.4946 -0.0000
v  -5.8164 90.1990 -0.0000
v  -18.7496 80.0000 -0.0000
v  -2.6602 90.4946 0.9682
v  -5.4656 90.1990 1.9893
v  -17.6189 80.0000 6.4128
v  -2.1686 90.4946 1.8197
v  -4.4556 90.1990 3.7387
v  -14.3631 80.0000 12.0520
v  -1.4155 90.4946 2.4517
v  -2.9082 90.1990 5.0372
v  -9.3748 80.0000 16.2377
v  -0.4916 90.4946 2.7879
v  -1.0100 90.1990 5.7281
v  -3.2558 80.0000 18.4648
v  0.4916 90.4946 2.7880
v  1.0100 90.1990 5.7281
v  3.2558 80.0000 18.4648
v  1.4155 90.4946 2.4517
v  2.9082 90.1990 5.0372
v  9.3748 80.0000 16.2377
v  2.1686 90.4946 1.8197
v  4.4556 90.1990 3.7387
v  14.3630 80.0000 12.0520
v  2.6602 90.4946 0.9682
v  5.4656 90.1990 1.9893
v  17.6189 80.0000 6.4128
v  -0.0000 90.5564 -0.0000
v  18.9846 0.0000 -0.0000
v  17.8397 0.0000 -6.4931
v  14.5430 0.0000 -12.2030
v  9.4923 0.0000 -16.4411
v  3.2966 0.0000 -18.6962
v  -3.2966 0.0000 -18.6962
v  -9.4923 0.0000 -16.4411
v  -14.5430 0.0000 -12.2030
v  -17.8397 0.0000 -6.4931
v  -18.9846 0.0000 -0.0000
v  -17.8397 0.0000 6.4931
v  -14.5430 0.0000 12.2030
v  -9.4923 0.0000 16.4411
v  -3.2966 0.0000 18.6962
v  3.2966 0.0000 18.6962
v  9.4923 0.0000 16.4411
v  14.5430 0.0000 12.2031
v  17.8397 0.0000 6.4931
v  -0.0000 0.0000 -0.0000
# 146 vertices

vn 0.8723 -0.3718 -0.3175
vn 0.9328 0.1206 -0.3395
vn 0.9927 0.1206 0.0000
vn 0.9283 -0.3718 0.0000
vn 0.7111 -0.3718 -0.5967
vn 0.7605 0.1206 -0.6381
vn 0.4642 -0.3718 -0.8039
vn 0.4963 0.1206 -0.8597
vn 0.1612 -0.3718 -0.9142
vn 0.1724 0.1206 -0.9776
vn -0.1612 -0.3718 -0.9142
vn -0.1724 0.1206 -0.9776
vn -0.4642 -0.3718 -0.8039
vn -0.4964 0.1206 -0.8597
vn -0.7111 -0.3718 -0.5967
vn -0.7605 0.1206 -0.6381
vn -0.8723 -0.3718 -0.3175
vn -0.9328 0.1206 -0.3395
vn -0.9283 -0.3718 -0.0000
vn -0.9927 0.1206 -0.0000
vn -0.8723 -0.3718 0.3175
vn -0.9328 0.1206 0.3395
vn -0.7111 -0.3718 0.5967
vn -0.7605 0.1206 0.6381
vn -0.4642 -0.3718 0.8039
vn -0.4964 0.1206 0.8597
vn -0.1612 -0.3718 0.9142
vn -0.1724 0.1206 0.9776
vn 0.1612 -0.3718 0.9142
vn 0.1724 0.1206 0.9776
vn 0.4642 -0.3718 0.8039
vn 0.4963 0.1206 0.8597
vn 0.7111 -0.3718 0.5967
vn 0.7605 0.1206 0.6381
vn 0.8723 -0.3718 0.3175
vn 0.9328 0.1206 0.3395
vn 0.4387 0.8843 -0.1597
vn 0.4669 0.8843 0.0000
vn 0.7428 0.6695 0.0000
vn 0.6980 0.6695 -0.2541
vn 0.3576 0.8843 -0.3001
vn 0.5690 0.6695 -0.4775
vn 0.2334 0.8843 -0.4043
vn 0.3714 0.6695 -0.6433
vn 0.0811 0.8843 -0.4598
vn 0.1290 0.6695 -0.7315
vn -0.0811 0.8843 -0.4598
vn -0.1290 0.6695 -0.7315
vn -0.2334 0.8843 -0.4043
vn -0.3714 0.6695 -0.6433
vn -0.3576 0.8843 -0.3001
vn -0.5690 0.6695 -0.4775
vn -0.4387 0.8843 -0.1597
vn -0.6980 0.6695 -0.2541
vn -0.4669 0.8843 -0.0000
vn -0.7428 0.6695 -0.0000
vn -0.4387 0.8843 0.1597
vn -0.6980 0.6695 0.2541
vn -0.3576 0.8843 0.3001
vn -0.5690 0.6695 0.4775
vn -0.2334 0.8843 0.4043
vn -0.3714 0.6695 0.6433
vn -0.0811 0.8843 0.4598
vn -0.1290 0.6695 0.7315
vn 0.0811 0.8843 0.4598
vn 0.1290 0.6695 0.7315
vn 0.2334 0.8843 0.4043
vn 0.3714 0.6695 0.6433
vn 0.3576 0.8843 0.3001
vn 0.5690 0.6695 0.4775
vn 0.4387 0.8843 0.1597
vn 0.6980 0.6695 0.2541
vn 0.0606 0.9979 -0.0221
vn 0.0645 0.9979 0.0000
vn 0.2174 0.9761 0.0000
vn 0.2043 0.9761 -0.0743
vn 0.8686 0.3815 -0.3162
vn 0.9244 0.3815 0.0000
vn 0.0494 0.9979 -0.0414
vn 0.1665 0.9761 -0.1397
vn 0.7081 0.3815 -0.5942
vn 0.0322 0.9979 -0.0558
vn 0.1087 0.9761 -0.1882
vn 0.4622 0.3815 -0.8005
vn 0.0112 0.9979 -0.0635
vn 0.0377 0.9761 -0.2141
vn 0.1605 0.3815 -0.9103
vn -0.0112 0.9979 -0.0635
vn -0.0377 0.9761 -0.2141
vn -0.1605 0.3815 -0.9103
vn -0.0322 0.9979 -0.0558
vn -0.1087 0.9761 -0.1882
vn -0.4622 0.3815 -0.8005
vn -0.0494 0.9979 -0.0414
vn -0.1665 0.9761 -0.1397
vn -0.7081 0.3815 -0.5942
vn -0.0606 0.9979 -0.0221
vn -0.2043 0.9761 -0.0743
vn -0.8686 0.3815 -0.3162
vn -0.0645 0.9979 -0.0000
vn -0.2174 0.9761 -0.0000
vn -0.9244 0.3815 -0.0000
vn -0.0606 0.9979 0.0221
vn -0.2043 0.9761 0.0743
vn -0.8686 0.3815 0.3162
vn -0.0494 0.9979 0.0414
vn -0.1665 0.9761 0.1397
vn -0.7081 0.3815 0.5942
vn -0.0322 0.9979 0.0558
vn -0.1087 0.9761 0.1882
vn -0.4622 0.3815 0.8005
vn -0.0112 0.9979 0.0635
vn -0.0377 0.9761 0.2141
vn -0.1605 0.3815 0.9103
vn 0.0112 0.9979 0.0635
vn 0.0377 0.9761 0.2141
vn 0.1605 0.3815 0.9103
vn 0.0322 0.9979 0.0558
vn 0.1087 0.9761 0.1882
vn 0.4622 0.3815 0.8005
vn 0.0494 0.9979 0.0414
vn 0.1665 0.9761 0.1397
vn 0.7081 0.3815 0.5942
vn 0.0606 0.9979 0.0221
vn 0.2043 0.9761 0.0743
vn 0.8686 0.3815 0.3162
vn -0.0000 1.0000 0.0000
vn 0.4140 -0.9103 0.0000
vn 0.3891 -0.9103 -0.1416
vn 0.3172 -0.9103 -0.2661
vn 0.2070 -0.9103 -0.3586
vn 0.0719 -0.9103 -0.4078
vn -0.0719 -0.9103 -0.4078
vn -0.2070 -0.9103 -0.3586
vn -0.3172 -0.9103 -0.2661
vn -0.3891 -0.9103 -0.1416
vn -0.4140 -0.9103 -0.0000
vn -0.3891 -0.9103 0.1416
vn -0.3172 -0.9103 0.2661
vn -0.2070 -0.9103 0.3586
vn -0.0719 -0.9103 0.4078
vn 0.0719 -0.9103 0.4078
vn 0.2070 -0.9103 0.3586
vn 0.3172 -0.9103 0.2661
vn 0.3891 -0.9103 0.1416
vn 0.0000 -1.0000 -0.0000
# 146 vertex normals

vt 0.2846 0.0105 0.0000
vt 0.2846 0.5887 0.0000
vt 0.2303 0.5887 0.0000
vt 0.2303 0.0105 0.0000
vt 0.3389 0.0105 0.0000
vt 0.3389 0.5887 0.0000
vt 0.3931 0.0105 0.0000
vt 0.3931 0.5887 0.0000
vt 0.4474 0.0105 0.0000
vt 0.4474 0.5887 0.0000
vt 0.5016 0.0105 0.0000
vt 0.5016 0.5887 0.0000
vt 0.5559 0.0105 0.0000
vt 0.5559 0.5887 0.0000
vt 0.6102 0.0106 0.0000
vt 0.6102 0.5887 0.0000
vt 0.6644 0.0106 0.0000
vt 0.6644 0.5887 0.0000
vt 0.7187 0.0106 0.0000
vt 0.7187 0.5887 0.0000
vt 0.7730 0.0106 0.0000
vt 0.7730 0.5887 0.0000
vt 0.8272 0.0106 0.0000
vt 0.8272 0.5887 0.0000
vt 0.8815 0.0106 0.0000
vt 0.8815 0.5887 0.0000
vt 0.9358 0.0106 0.0000
vt 0.9358 0.5887 0.0000
vt 0.9901 0.0106 0.0000
vt 0.9901 0.5887 0.0000
vt 0.0675 0.0105 0.0000
vt 0.0675 0.5887 0.0000
vt 0.0133 0.5887 0.0000
vt 0.0133 0.0105 0.0000
vt 0.1218 0.0105 0.0000
vt 0.1218 0.5887 0.0000
vt 0.1761 0.0105 0.0000
vt 0.1761 0.5887 0.0000
vt 0.7551 0.8595 0.0000
vt 0.7795 0.8689 0.0000
vt 0.7710 0.9122 0.0000
vt 0.7323 0.8972 0.0000
vt 0.7353 0.8422 0.0000
vt 0.7010 0.8699 0.0000
vt 0.7226 0.8193 0.0000
vt 0.6809 0.8336 0.0000
vt 0.7186 0.7934 0.0000
vt 0.6745 0.7925 0.0000
vt 0.7236 0.7677 0.0000
vt 0.6825 0.7518 0.0000
vt 0.7372 0.7452 0.0000
vt 0.7040 0.7163 0.0000
vt 0.7576 0.7288 0.0000
vt 0.7363 0.6902 0.0000
vt 0.7824 0.7203 0.0000
vt 0.7756 0.6767 0.0000
vt 0.8086 0.7208 0.0000
vt 0.8171 0.6776 0.0000
vt 0.8330 0.7303 0.0000
vt 0.8558 0.6925 0.0000
vt 0.8528 0.7475 0.0000
vt 0.8871 0.7198 0.0000
vt 0.8654 0.7704 0.0000
vt 0.9071 0.7562 0.0000
vt 0.8695 0.7963 0.0000
vt 0.9136 0.7972 0.0000
vt 0.8644 0.8221 0.0000
vt 0.9056 0.8379 0.0000
vt 0.8509 0.8445 0.0000
vt 0.8841 0.8735 0.0000
vt 0.8305 0.8610 0.0000
vt 0.8518 0.8995 0.0000
vt 0.8057 0.8694 0.0000
vt 0.8125 0.9130 0.0000
vt 0.7848 0.8102 0.0000
vt 0.7907 0.8120 0.0000
vt 0.7866 0.8329 0.0000
vt 0.7740 0.8280 0.0000
vt 0.7555 0.9908 0.0000
vt 0.6909 0.9658 0.0000
vt 0.7107 0.9330 0.0000
vt 0.7630 0.9532 0.0000
vt 0.7805 0.8058 0.0000
vt 0.7639 0.8192 0.0000
vt 0.6387 0.9202 0.0000
vt 0.6685 0.8961 0.0000
vt 0.7771 0.8007 0.0000
vt 0.7574 0.8074 0.0000
vt 0.6052 0.8595 0.0000
vt 0.6414 0.8471 0.0000
vt 0.7766 0.7945 0.0000
vt 0.7553 0.7941 0.0000
vt 0.5944 0.7910 0.0000
vt 0.6327 0.7917 0.0000
vt 0.7773 0.7884 0.0000
vt 0.7579 0.7809 0.0000
vt 0.6078 0.7230 0.0000
vt 0.6435 0.7368 0.0000
vt 0.7809 0.7834 0.0000
vt 0.7649 0.7694 0.0000
vt 0.6436 0.6636 0.0000
vt 0.6725 0.6888 0.0000
vt 0.7854 0.7791 0.0000
vt 0.7753 0.7609 0.0000
vt 0.6976 0.6201 0.0000
vt 0.7161 0.6536 0.0000
vt 0.7913 0.7776 0.0000
vt 0.7881 0.7566 0.0000
vt 0.7632 0.5976 0.0000
vt 0.7691 0.6355 0.0000
vt 0.7975 0.7772 0.0000
vt 0.8015 0.7568 0.0000
vt 0.8325 0.5989 0.0000
vt 0.8251 0.6365 0.0000
vt 0.8031 0.7799 0.0000
vt 0.8140 0.7617 0.0000
vt 0.8972 0.6240 0.0000
vt 0.8774 0.6568 0.0000
vt 0.8080 0.7836 0.0000
vt 0.8242 0.7705 0.0000
vt 0.9494 0.6695 0.0000
vt 0.9196 0.6936 0.0000
vt 0.8106 0.7892 0.0000
vt 0.8307 0.7823 0.0000
vt 0.9829 0.7302 0.0000
vt 0.9467 0.7426 0.0000
vt 0.8120 0.7952 0.0000
vt 0.8328 0.7956 0.0000
vt 0.9936 0.7987 0.0000
vt 0.9553 0.7980 0.0000
vt 0.8103 0.8012 0.0000
vt 0.8302 0.8088 0.0000
vt 0.9803 0.8668 0.0000
vt 0.9446 0.8530 0.0000
vt 0.8076 0.8067 0.0000
vt 0.8232 0.8204 0.0000
vt 0.9445 0.9261 0.0000
vt 0.9156 0.9010 0.0000
vt 0.8025 0.8102 0.0000
vt 0.8127 0.8288 0.0000
vt 0.8905 0.9697 0.0000
vt 0.8720 0.9361 0.0000
vt 0.7968 0.8126 0.0000
vt 0.8000 0.8332 0.0000
vt 0.8249 0.9921 0.0000
vt 0.8190 0.9543 0.0000
vt 0.7940 0.7949 0.0000
vt 0.3632 0.6001 0.0000
vt 0.3654 0.6140 0.0000
vt 0.3053 0.6349 0.0000
vt 0.2984 0.6225 0.0000
vt 0.2560 0.6750 0.0000
vt 0.2454 0.6658 0.0000
vt 0.2234 0.7296 0.0000
vt 0.2102 0.7246 0.0000
vt 0.2114 0.7920 0.0000
vt 0.1974 0.7918 0.0000
vt 0.2216 0.8548 0.0000
vt 0.2082 0.8595 0.0000
vt 0.2525 0.9104 0.0000
vt 0.2416 0.9192 0.0000
vt 0.3006 0.9519 0.0000
vt 0.2933 0.9641 0.0000
vt 0.3600 0.9746 0.0000
vt 0.3574 0.9884 0.0000
vt 0.4236 0.9755 0.0000
vt 0.4259 0.9895 0.0000
vt 0.4837 0.9547 0.0000
vt 0.4905 0.9670 0.0000
vt 0.5330 0.9145 0.0000
vt 0.5437 0.9238 0.0000
vt 0.5656 0.8600 0.0000
vt 0.5788 0.8650 0.0000
vt 0.5776 0.7975 0.0000
vt 0.5917 0.7977 0.0000
vt 0.5675 0.7347 0.0000
vt 0.5808 0.7301 0.0000
vt 0.5365 0.6792 0.0000
vt 0.5475 0.6703 0.0000
vt 0.4884 0.6376 0.0000
vt 0.4956 0.6255 0.0000
vt 0.4290 0.6150 0.0000
vt 0.4317 0.6011 0.0000
vt 0.3945 0.7948 0.0000
# 184 texture coords

g trash_02
s 1
f 1/1/1 2/2/2 3/3/3 4/4/4 
f 5/5/5 6/6/6 2/2/2 1/1/1 
f 7/7/7 8/8/8 6/6/6 5/5/5 
f 9/9/9 10/10/10 8/8/8 7/7/7 
f 11/11/11 12/12/12 10/10/10 9/9/9 
f 13/13/13 14/14/14 12/12/12 11/11/11 
f 15/15/15 16/16/16 14/14/14 13/13/13 
f 17/17/17 18/18/18 16/16/16 15/15/15 
f 19/19/19 20/20/20 18/18/18 17/17/17 
f 21/21/21 22/22/22 20/20/20 19/19/19 
f 23/23/23 24/24/24 22/22/22 21/21/21 
f 25/25/25 26/26/26 24/24/24 23/23/23 
f 27/27/27 28/28/28 26/26/26 25/25/25 
f 29/29/29 30/30/30 28/28/28 27/27/27 
f 31/31/31 32/32/32 30/33/30 29/34/29 
f 33/35/33 34/36/34 32/32/32 31/31/31 
f 35/37/35 36/38/36 34/36/34 33/35/33 
f 4/4/4 3/3/3 36/38/36 35/37/35 
f 37/39/37 38/40/38 39/41/39 40/42/40 
f 41/43/41 37/39/37 40/42/40 42/44/42 
f 43/45/43 41/43/41 42/44/42 44/46/44 
f 45/47/45 43/45/43 44/46/44 46/48/46 
f 47/49/47 45/47/45 46/48/46 48/50/48 
f 49/51/49 47/49/47 48/50/48 50/52/50 
f 51/53/51 49/51/49 50/52/50 52/54/52 
f 53/55/53 51/53/51 52/54/52 54/56/54 
f 55/57/55 53/55/53 54/56/54 56/58/56 
f 57/59/57 55/57/55 56/58/56 58/60/58 
f 59/61/59 57/59/57 58/60/58 60/62/60 
f 61/63/61 59/61/59 60/62/60 62/64/62 
f 63/65/63 61/63/61 62/64/62 64/66/64 
f 65/67/65 63/65/63 64/66/64 66/68/66 
f 67/69/67 65/67/65 66/68/66 68/70/68 
f 69/71/69 67/69/67 68/70/68 70/72/70 
f 71/73/71 69/71/69 70/72/70 72/74/72 
f 38/40/38 71/73/71 72/74/72 39/41/39 
f 73/75/73 74/76/74 75/77/75 76/78/76 
f 76/78/76 75/77/75 38/40/38 37/39/37 
f 3/79/3 2/80/2 77/81/77 78/82/78 
f 78/82/78 77/81/77 40/42/40 39/41/39 
f 79/83/79 73/75/73 76/78/76 80/84/80 
f 80/84/80 76/78/76 37/39/37 41/43/41 
f 2/80/2 6/85/6 81/86/81 77/81/77 
f 77/81/77 81/86/81 42/44/42 40/42/40 
f 82/87/82 79/83/79 80/84/80 83/88/83 
f 83/88/83 80/84/80 41/43/41 43/45/43 
f 6/85/6 8/89/8 84/90/84 81/86/81 
f 81/86/81 84/90/84 44/46/44 42/44/42 
f 85/91/85 82/87/82 83/88/83 86/92/86 
f 86/92/86 83/88/83 43/45/43 45/47/45 
f 8/89/8 10/93/10 87/94/87 84/90/84 
f 84/90/84 87/94/87 46/48/46 44/46/44 
f 88/95/88 85/91/85 86/92/86 89/96/89 
f 89/96/89 86/92/86 45/47/45 47/49/47 
f 10/93/10 12/97/12 90/98/90 87/94/87 
f 87/94/87 90/98/90 48/50/48 46/48/46 
f 91/99/91 88/95/88 89/96/89 92/100/92 
f 92/100/92 89/96/89 47/49/47 49/51/49 
f 12/97/12 14/101/14 93/102/93 90/98/90 
f 90/98/90 93/102/93 50/52/50 48/50/48 
f 94/103/94 91/99/91 92/100/92 95/104/95 
f 95/104/95 92/100/92 49/51/49 51/53/51 
f 14/101/14 16/105/16 96/106/96 93/102/93 
f 93/102/93 96/106/96 52/54/52 50/52/50 
f 97/107/97 94/103/94 95/104/95 98/108/98 
f 98/108/98 95/104/95 51/53/51 53/55/53 
f 16/105/16 18/109/18 99/110/99 96/106/96 
f 96/106/96 99/110/99 54/56/54 52/54/52 
f 100/111/100 97/107/97 98/108/98 101/112/101 
f 101/112/101 98/108/98 53/55/53 55/57/55 
f 18/109/18 20/113/20 102/114/102 99/110/99 
f 99/110/99 102/114/102 56/58/56 54/56/54 
f 103/115/103 100/111/100 101/112/101 104/116/104 
f 104/116/104 101/112/101 55/57/55 57/59/57 
f 20/113/20 22/117/22 105/118/105 102/114/102 
f 102/114/102 105/118/105 58/60/58 56/58/56 
f 106/119/106 103/115/103 104/116/104 107/120/107 
f 107/120/107 104/116/104 57/59/57 59/61/59 
f 22/117/22 24/121/24 108/122/108 105/118/105 
f 105/118/105 108/122/108 60/62/60 58/60/58 
f 109/123/109 106/119/106 107/120/107 110/124/110 
f 110/124/110 107/120/107 59/61/59 61/63/61 
f 24/121/24 26/125/26 111/126/111 108/122/108 
f 108/122/108 111/126/111 62/64/62 60/62/60 
f 112/127/112 109/123/109 110/124/110 113/128/113 
f 113/128/113 110/124/110 61/63/61 63/65/63 
f 26/125/26 28/129/28 114/130/114 111/126/111 
f 111/126/111 114/130/114 64/66/64 62/64/62 
f 115/131/115 112/127/112 113/128/113 116/132/116 
f 116/132/116 113/128/113 63/65/63 65/67/65 
f 28/129/28 30/133/30 117/134/117 114/130/114 
f 114/130/114 117/134/117 66/68/66 64/66/64 
f 118/135/118 115/131/115 116/132/116 119/136/119 
f 119/136/119 116/132/116 65/67/65 67/69/67 
f 30/133/30 32/137/32 120/138/120 117/134/117 
f 117/134/117 120/138/120 68/70/68 66/68/66 
f 121/139/121 118/135/118 119/136/119 122/140/122 
f 122/140/122 119/136/119 67/69/67 69/71/69 
f 32/137/32 34/141/34 123/142/123 120/138/120 
f 120/138/120 123/142/123 70/72/70 68/70/68 
f 124/143/124 121/139/121 122/140/122 125/144/125 
f 125/144/125 122/140/122 69/71/69 71/73/71 
f 34/141/34 36/145/36 126/146/126 123/142/123 
f 123/142/123 126/146/126 72/74/72 70/72/70 
f 74/76/74 124/143/124 125/144/125 75/77/75 
f 75/77/75 125/144/125 71/73/71 38/40/38 
f 36/145/36 3/79/3 78/82/78 126/146/126 
f 126/146/126 78/82/78 39/41/39 72/74/72 
f 79/83/79 82/87/82 127/147/127 73/75/73 
f 85/91/85 88/95/88 127/147/127 82/87/82 
f 91/99/91 94/103/94 127/147/127 88/95/88 
f 97/107/97 100/111/100 127/147/127 94/103/94 
f 103/115/103 106/119/106 127/147/127 100/111/100 
f 109/123/109 112/127/112 127/147/127 106/119/106 
f 115/131/115 118/135/118 127/147/127 112/127/112 
f 121/139/121 124/143/124 127/147/127 118/135/118 
f 74/76/74 73/75/73 127/147/127 124/143/124 
f 4/148/4 128/149/128 129/150/129 1/151/1 
f 1/151/1 129/150/129 130/152/130 5/153/5 
f 5/153/5 130/152/130 131/154/131 7/155/7 
f 7/155/7 131/154/131 132/156/132 9/157/9 
f 9/157/9 132/156/132 133/158/133 11/159/11 
f 11/159/11 133/158/133 134/160/134 13/161/13 
f 13/161/13 134/160/134 135/162/135 15/163/15 
f 15/163/15 135/162/135 136/164/136 17/165/17 
f 17/165/17 136/164/136 137/166/137 19/167/19 
f 19/167/19 137/166/137 138/168/138 21/169/21 
f 21/169/21 138/168/138 139/170/139 23/171/23 
f 23/171/23 139/170/139 140/172/140 25/173/25 
f 25/173/25 140/172/140 141/174/141 27/175/27 
f 27/175/27 141/174/141 142/176/142 29/177/29 
f 29/177/29 142/176/142 143/178/143 31/179/31 
f 31/179/31 143/178/143 144/180/144 33/181/33 
f 33/181/33 144/180/144 145/182/145 35/183/35 
f 35/183/35 145/182/145 128/149/128 4/148/4 
f 128/149/128 145/182/145 146/184/146 129/150/129 
f 144/180/144 143/178/143 146/184/146 145/182/145 
f 142/176/142 141/174/141 146/184/146 143/178/143 
f 140/172/140 139/170/139 146/184/146 141/174/141 
f 138/168/138 137/166/137 146/184/146 139/170/139 
f 136/164/136 135/162/135 146/184/146 137/166/137 
f 134/160/134 133/158/133 146/184/146 135/162/135 
f 132/156/132 131/154/131 146/184/146 133/158/133 
f 130/152/130 129/150/129 146/184/146 131/154/131 
# 144 polygons

