# 3ds Max Wavefront OBJ Exporter v0.97b - (c)2007 guruware
# File Created: 01.10.2012 14:35:50

#
# object trash_03
#

v  13.0000 69.6932 -20.7846
v  24.2140 87.7574 -1.3613
v  24.0025 1.0000 -1.7278
v  13.0000 1.0000 -20.7846
v  11.5000 69.1765 -21.6507
v  11.5000 1.0000 -21.6507
v  -11.5000 1.0000 -21.6507
v  -11.5000 69.1765 -21.6507
v  -13.0000 69.6932 -20.7845
v  -13.0000 1.0000 -20.7845
v  -24.0024 1.0000 -1.7278
v  -24.2140 87.7574 -1.3613
v  -13.0000 69.6932 20.7847
v  -24.2140 87.7574 1.3615
v  -24.0024 1.0000 1.7279
v  -13.0000 1.0000 20.7847
v  -11.5000 69.1765 21.6507
v  -11.5000 1.0000 21.6507
v  11.5000 1.0000 21.6507
v  11.5000 69.1765 21.6507
v  13.0000 69.6932 20.7847
v  13.0000 1.0000 20.7847
v  24.0025 1.0000 1.7279
v  24.2140 87.7574 1.3614
v  11.9227 0.0000 20.6507
v  -11.9226 0.0000 20.6507
v  -23.0000 0.0000 1.7321
v  23.0000 0.0000 1.7321
v  23.2165 88.7574 1.3572
v  -23.2164 88.7574 1.3572
v  -11.8389 70.8518 20.9132
v  11.8390 70.8518 20.9132
v  23.2165 88.7574 -1.3571
v  11.8390 70.8518 -20.9130
v  -11.8389 70.8518 -20.9130
v  -23.2164 88.7574 -1.3571
v  -23.0000 0.0000 -1.7320
v  -11.9226 0.0000 -20.6507
v  11.9227 0.0000 -20.6507
v  23.0000 0.0000 -1.7320
v  24.6070 88.3787 0.0001
v  24.5013 1.0000 0.0001
v  -24.5012 1.0000 0.0001
v  -24.6070 88.3787 0.0001
v  23.6083 89.3787 0.0001
v  -23.6082 89.3787 0.0001
v  -23.5000 0.0000 0.0001
v  23.5000 0.0000 0.0001
# 48 vertices

vn 0.6558 0.1722 -0.7351
vn 0.7909 0.3133 -0.5256
vn 0.8621 -0.3570 -0.3596
vn 0.6826 -0.3400 -0.6469
vn 0.2230 0.1694 -0.9600
vn 0.2189 -0.3400 -0.9146
vn -0.2189 -0.3400 -0.9146
vn -0.2230 0.1694 -0.9600
vn -0.6557 0.1715 -0.7353
vn -0.6821 -0.3388 -0.6480
vn -0.8626 -0.3566 -0.3588
vn -0.7916 0.3134 -0.5246
vn -0.6558 0.1722 0.7351
vn -0.7909 0.3133 0.5256
vn -0.8621 -0.3570 0.3596
vn -0.6826 -0.3400 0.6469
vn -0.2230 0.1694 0.9600
vn -0.2189 -0.3400 0.9146
vn 0.2189 -0.3400 0.9146
vn 0.2230 0.1694 0.9600
vn 0.6557 0.1715 0.7353
vn 0.6821 -0.3388 0.6480
vn 0.8626 -0.3566 0.3588
vn 0.7916 0.3134 0.5246
vn 0.2467 -0.8688 0.4294
vn -0.2476 -0.8688 0.4289
vn -0.3914 -0.9026 0.1794
vn 0.3911 -0.9031 0.1775
vn 0.3045 0.7481 0.5896
vn -0.3045 0.7475 0.5903
vn -0.2259 0.5323 0.8159
vn 0.2251 0.5320 0.8162
vn 0.3045 0.7475 -0.5903
vn 0.2259 0.5323 -0.8159
vn -0.2251 0.5320 -0.8162
vn -0.3045 0.7481 -0.5896
vn -0.3911 -0.9031 -0.1775
vn -0.2467 -0.8688 -0.4294
vn 0.2476 -0.8688 -0.4289
vn 0.3914 -0.9026 -0.1794
vn 0.9000 0.4359 0.0001
vn 0.9324 -0.3615 -0.0000
vn -0.9324 -0.3615 -0.0000
vn -0.9000 0.4359 -0.0001
vn 0.3983 0.9172 0.0001
vn -0.3983 0.9172 -0.0001
vn -0.4376 -0.8992 -0.0000
vn 0.4376 -0.8992 -0.0000
# 48 vertex normals

vt 0.6591 0.4653 0.0000
vt 0.5094 0.5860 0.0000
vt 0.5120 0.0068 0.0000
vt 0.6589 0.0067 0.0000
vt 0.6707 0.4618 0.0000
vt 0.6705 0.0067 0.0000
vt 0.8240 0.0066 0.0000
vt 0.8242 0.4618 0.0000
vt 0.8358 0.4652 0.0000
vt 0.8356 0.0066 0.0000
vt 0.9825 0.0066 0.0000
vt 0.9856 0.5857 0.0000
vt 0.1642 0.4652 0.0000
vt 0.0144 0.5857 0.0000
vt 0.0175 0.0066 0.0000
vt 0.1644 0.0066 0.0000
vt 0.1758 0.4618 0.0000
vt 0.1760 0.0066 0.0000
vt 0.3295 0.0067 0.0000
vt 0.3293 0.4618 0.0000
vt 0.3409 0.4653 0.0000
vt 0.3411 0.0067 0.0000
vt 0.4880 0.0068 0.0000
vt 0.4905 0.5860 0.0000
vt 0.6108 0.7301 0.0000
vt 0.6108 0.5711 0.0000
vt 0.7370 0.4971 0.0000
vt 0.7370 0.8041 0.0000
vt 0.2552 0.8205 0.0000
vt 0.2552 0.5100 0.0000
vt 0.4326 0.5860 0.0000
vt 0.4325 0.7444 0.0000
vt 0.2370 0.8204 0.0000
vt 0.0597 0.7444 0.0000
vt 0.0597 0.5860 0.0000
vt 0.2370 0.5099 0.0000
vt 0.7599 0.4971 0.0000
vt 0.8861 0.5711 0.0000
vt 0.8861 0.7301 0.0000
vt 0.7599 0.8041 0.0000
vt 0.5000 0.5901 0.0000
vt 0.5000 0.0068 0.0000
vt 0.9945 0.0066 0.0000
vt 0.9950 0.5899 0.0000
vt 0.2461 0.8222 0.0000
vt 0.2461 0.5082 0.0000
vt 0.7484 0.4939 0.0000
vt 0.7484 0.8073 0.0000
vt 0.0055 0.0066 0.0000
vt 0.0050 0.5899 0.0000
vt 0.8957 0.7283 0.0000
vt 0.8894 0.7393 0.0000
vt 0.8894 0.5619 0.0000
vt 0.8957 0.5728 0.0000
vt 0.6012 0.5729 0.0000
vt 0.6075 0.5619 0.0000
vt 0.6075 0.7393 0.0000
vt 0.6012 0.7284 0.0000
vt 0.0473 0.7427 0.0000
vt 0.0537 0.7537 0.0000
vt 0.0537 0.5767 0.0000
vt 0.0473 0.5877 0.0000
vt 0.4449 0.5877 0.0000
vt 0.4385 0.5767 0.0000
vt 0.4385 0.7537 0.0000
vt 0.4449 0.7427 0.0000
vt 0.7609 0.8136 0.0000
vt 0.2335 0.8293 0.0000
vt 0.7609 0.4875 0.0000
vt 0.2335 0.5010 0.0000
vt 0.7359 0.4876 0.0000
vt 0.2587 0.5011 0.0000
vt 0.7360 0.8137 0.0000
vt 0.2587 0.8294 0.0000
vt 0.7484 0.8169 0.0000
vt 0.7484 0.4843 0.0000
vt 0.2462 0.8312 0.0000
vt 0.2460 0.4992 0.0000
# 78 texture coords

g trash_03
s 1
f 1/1/1 2/2/2 3/3/3 4/4/4 
f 5/5/5 6/6/6 7/7/7 8/8/8 
f 9/9/9 10/10/10 11/11/11 12/12/12 
f 13/13/13 14/14/14 15/15/15 16/16/16 
f 17/17/17 18/18/18 19/19/19 20/20/20 
f 21/21/21 22/22/22 23/23/23 24/24/24 
f 25/25/25 26/26/26 27/27/27 28/28/28 
f 29/29/29 30/30/30 31/31/31 32/32/32 
f 33/33/33 34/34/34 35/35/35 36/36/36 
f 37/37/37 38/38/38 39/39/39 40/40/40 
f 2/2/2 41/41/41 42/42/42 3/3/3 
f 43/43/43 44/44/44 12/12/12 11/11/11 
f 45/45/45 46/46/46 30/30/30 29/29/29 
f 47/47/47 48/48/48 28/28/28 27/27/27 
f 24/24/24 23/23/23 42/42/42 41/41/41 
f 43/49/43 15/15/15 14/14/14 44/50/44 
f 33/33/33 36/36/36 46/46/46 45/45/45 
f 37/37/37 40/40/40 48/48/48 47/47/47 
f 39/39/39 6/51/6 4/52/4 
f 38/38/38 10/53/10 7/54/7 
f 26/26/26 18/55/18 16/56/16 
f 25/25/25 22/57/22 19/58/19 
f 5/59/5 34/34/34 1/60/1 
f 9/61/9 35/35/35 8/62/8 
f 17/63/17 31/31/31 13/64/13 
f 21/65/21 32/32/32 20/66/20 
f 4/52/4 3/67/3 40/40/40 39/39/39 
f 5/5/5 1/1/1 4/4/4 6/6/6 
f 2/68/2 1/60/1 34/34/34 33/33/33 
f 7/54/7 6/51/6 39/39/39 38/38/38 
f 8/8/8 7/7/7 10/10/10 9/9/9 
f 5/59/5 8/62/8 35/35/35 34/34/34 
f 37/37/37 11/69/11 10/53/10 38/38/38 
f 35/35/35 9/61/9 12/70/12 36/36/36 
f 16/56/16 15/71/15 27/27/27 26/26/26 
f 17/17/17 13/13/13 16/16/16 18/18/18 
f 14/72/14 13/64/13 31/31/31 30/30/30 
f 19/58/19 18/55/18 26/26/26 25/25/25 
f 20/20/20 19/19/19 22/22/22 21/21/21 
f 17/63/17 20/66/20 32/32/32 31/31/31 
f 28/28/28 23/73/23 22/57/22 25/25/25 
f 32/32/32 21/65/21 24/74/24 29/29/29 
f 48/48/48 42/75/42 23/73/23 28/28/28 
f 47/47/47 43/76/43 11/69/11 37/37/37 
f 41/77/41 45/45/45 29/29/29 24/74/24 
f 44/78/44 46/46/46 36/36/36 12/70/12 
f 3/67/3 42/75/42 48/48/48 40/40/40 
f 15/71/15 43/76/43 47/47/47 27/27/27 
f 33/33/33 45/45/45 41/77/41 2/68/2 
f 30/30/30 46/46/46 44/78/44 14/72/14 
# 42 polygons - 8 triangles

