# 3ds Max Wavefront OBJ Exporter v0.97b - (c)2007 guruware
# File Created: 30.09.2012 16:06:44

#
# object trash_01
#

v  20.0000 91.5000 -0.0000
v  20.0000 1.5000 -0.0000
v  18.7939 1.5000 -6.8404
v  18.7939 91.5000 -6.8404
v  15.3209 1.5000 -12.8558
v  15.3209 91.5000 -12.8558
v  10.0000 1.5000 -17.3205
v  10.0000 91.5000 -17.3205
v  3.4730 1.5000 -19.6962
v  3.4730 91.5000 -19.6962
v  -3.4730 1.5000 -19.6962
v  -3.4730 91.5000 -19.6962
v  -10.0000 1.5000 -17.3205
v  -10.0000 91.5000 -17.3205
v  -15.3209 1.5000 -12.8558
v  -15.3209 91.5000 -12.8558
v  -18.7939 1.5000 -6.8404
v  -18.7939 91.5000 -6.8404
v  -20.0000 1.5000 -0.0000
v  -20.0000 91.5000 -0.0000
v  -18.7939 1.5000 6.8404
v  -18.7939 91.5000 6.8404
v  -15.3209 1.5000 12.8557
v  -15.3209 91.5000 12.8557
v  -10.0000 1.5000 17.3205
v  -10.0000 91.5000 17.3205
v  -3.4730 1.5000 19.6962
v  -3.4730 91.5000 19.6962
v  3.4730 1.5000 19.6962
v  3.4730 91.5000 19.6962
v  10.0000 1.5000 17.3205
v  10.0000 91.5000 17.3205
v  15.3209 1.5000 12.8558
v  15.3209 91.5000 12.8558
v  18.7938 1.5000 6.8404
v  18.7938 91.5000 6.8404
v  17.5620 92.7880 -6.3921
v  18.6891 92.7880 -0.0000
v  14.3167 92.7880 -12.0131
v  9.3446 92.7880 -16.1853
v  3.2453 92.7880 -18.4052
v  -3.2453 92.7880 -18.4052
v  -9.3446 92.7880 -16.1853
v  -14.3167 92.7880 -12.0131
v  -17.5620 92.7880 -6.3921
v  -18.6891 92.7880 -0.0000
v  -17.5620 92.7880 6.3921
v  -14.3167 92.7880 12.0131
v  -9.3446 92.7880 16.1852
v  -3.2453 92.7880 18.4052
v  3.2453 92.7880 18.4052
v  9.3446 92.7880 16.1853
v  14.3167 92.7880 12.0131
v  17.5620 92.7880 6.3921
v  8.0339 95.8275 -2.9241
v  2.2992 96.4311 -0.8368
v  2.4467 96.4311 -0.0000
v  8.5495 95.8275 -0.0000
v  6.5493 95.8275 -5.4955
v  1.8743 96.4311 -1.5727
v  4.2748 95.8275 -7.4041
v  1.2234 96.4311 -2.1189
v  1.4846 95.8275 -8.4197
v  0.4249 96.4311 -2.4096
v  -1.4846 95.8275 -8.4197
v  -0.4249 96.4311 -2.4096
v  -4.2748 95.8275 -7.4041
v  -1.2234 96.4311 -2.1189
v  -6.5493 95.8275 -5.4955
v  -1.8743 96.4311 -1.5727
v  -8.0339 95.8275 -2.9241
v  -2.2992 96.4311 -0.8368
v  -8.5495 95.8275 -0.0000
v  -2.4467 96.4311 -0.0000
v  -8.0339 95.8275 2.9241
v  -2.2992 96.4311 0.8368
v  -6.5493 95.8275 5.4955
v  -1.8743 96.4311 1.5727
v  -4.2748 95.8275 7.4041
v  -1.2234 96.4311 2.1189
v  -1.4846 95.8275 8.4197
v  -0.4249 96.4311 2.4096
v  1.4846 95.8275 8.4197
v  0.4249 96.4311 2.4096
v  4.2748 95.8275 7.4041
v  1.2234 96.4311 2.1189
v  6.5493 95.8275 5.4955
v  1.8743 96.4311 1.5727
v  8.0339 95.8275 2.9241
v  2.2992 96.4311 0.8368
v  13.1585 94.8225 -4.7893
v  14.0029 94.8225 -0.0000
v  10.7269 94.8225 -9.0009
v  7.0015 94.8225 -12.1269
v  2.4316 94.8225 -13.7902
v  -2.4316 94.8225 -13.7902
v  -7.0015 94.8225 -12.1269
v  -10.7269 94.8225 -9.0009
v  -13.1585 94.8225 -4.7893
v  -14.0029 94.8225 -0.0000
v  -13.1585 94.8225 4.7893
v  -10.7269 94.8225 9.0009
v  -7.0015 94.8225 12.1269
v  -2.4316 94.8225 13.7902
v  2.4316 94.8225 13.7902
v  7.0015 94.8225 12.1269
v  10.7269 94.8225 9.0009
v  13.1585 94.8225 4.7893
v  0.0000 96.5000 -0.0000
v  17.8397 1.5000 -6.4931
v  18.9846 1.5000 -0.0000
v  17.8397 1.5000 6.4931
v  14.5430 1.5000 12.2031
v  9.4923 1.5000 16.4411
v  3.2966 1.5000 18.6962
v  -3.2966 1.5000 18.6962
v  -9.4923 1.5000 16.4411
v  -14.5430 1.5000 12.2030
v  -17.8397 1.5000 6.4931
v  -18.9846 1.5000 -0.0000
v  -17.8397 1.5000 -6.4931
v  -14.5430 1.5000 -12.2030
v  -9.4923 1.5000 -16.4411
v  -3.2966 1.5000 -18.6962
v  3.2966 1.5000 -18.6962
v  9.4923 1.5000 -16.4411
v  14.5430 1.5000 -12.2030
v  17.8397 0.0000 -6.4931
v  18.9846 0.0000 -0.0000
v  17.8397 0.0000 6.4931
v  14.5430 0.0000 12.2031
v  9.4923 0.0000 16.4411
v  3.2966 0.0000 18.6962
v  -3.2966 0.0000 18.6962
v  -9.4923 0.0000 16.4411
v  -14.5430 0.0000 12.2030
v  -17.8397 0.0000 6.4931
v  -18.9846 0.0000 -0.0000
v  -17.8397 0.0000 -6.4931
v  -14.5430 0.0000 -12.2030
v  -9.4923 0.0000 -16.4411
v  -3.2966 0.0000 -18.6962
v  3.2966 0.0000 -18.6962
v  9.4923 0.0000 -16.4411
v  14.5430 0.0000 -12.2030
v  0.0000 0.0000 -0.0000
# 146 vertices

vn 0.9281 0.3723 0.0000
vn 0.7423 -0.6700 0.0000
vn 0.6976 -0.6700 -0.2539
vn 0.8721 0.3723 -0.3174
vn 0.5687 -0.6700 -0.4772
vn 0.7110 0.3723 -0.5966
vn 0.3712 -0.6700 -0.6429
vn 0.4641 0.3723 -0.8038
vn 0.1289 -0.6700 -0.7311
vn 0.1612 0.3723 -0.9140
vn -0.1289 -0.6700 -0.7311
vn -0.1612 0.3723 -0.9140
vn -0.3712 -0.6700 -0.6429
vn -0.4641 0.3723 -0.8038
vn -0.5687 -0.6700 -0.4772
vn -0.7110 0.3723 -0.5966
vn -0.6976 -0.6700 -0.2539
vn -0.8721 0.3723 -0.3174
vn -0.7423 -0.6700 -0.0000
vn -0.9281 0.3723 0.0000
vn -0.6976 -0.6700 0.2539
vn -0.8721 0.3723 0.3174
vn -0.5687 -0.6700 0.4772
vn -0.7110 0.3723 0.5966
vn -0.3712 -0.6700 0.6429
vn -0.4641 0.3723 0.8038
vn -0.1289 -0.6700 0.7311
vn -0.1612 0.3723 0.9140
vn 0.1289 -0.6700 0.7311
vn 0.1612 0.3723 0.9140
vn 0.3712 -0.6700 0.6429
vn 0.4641 0.3723 0.8038
vn 0.5687 -0.6700 0.4772
vn 0.7110 0.3723 0.5966
vn 0.6976 -0.6700 0.2539
vn 0.8722 0.3723 0.3174
vn 0.5380 0.8199 -0.1958
vn 0.5725 0.8199 0.0000
vn 0.4386 0.8199 -0.3680
vn 0.2863 0.8199 -0.4958
vn 0.0994 0.8199 -0.5638
vn -0.0994 0.8199 -0.5638
vn -0.2863 0.8199 -0.4958
vn -0.4386 0.8199 -0.3680
vn -0.5380 0.8199 -0.1958
vn -0.5725 0.8199 0.0000
vn -0.5380 0.8199 0.1958
vn -0.4386 0.8199 0.3680
vn -0.2863 0.8199 0.4958
vn -0.0994 0.8199 0.5638
vn 0.0994 0.8199 0.5638
vn 0.2863 0.8199 0.4958
vn 0.4386 0.8199 0.3680
vn 0.5380 0.8199 0.1958
vn 0.1358 0.9895 -0.0494
vn 0.0617 0.9978 -0.0225
vn 0.0547 0.9985 -0.0000
vn 0.1445 0.9895 -0.0000
vn 0.1107 0.9895 -0.0929
vn 0.0419 0.9985 -0.0352
vn 0.0723 0.9895 -0.1251
vn 0.0328 0.9978 -0.0569
vn 0.0251 0.9895 -0.1423
vn 0.0095 0.9985 -0.0539
vn -0.0251 0.9895 -0.1423
vn -0.0114 0.9978 -0.0647
vn -0.0723 0.9895 -0.1251
vn -0.0274 0.9985 -0.0474
vn -0.1107 0.9895 -0.0929
vn -0.0503 0.9978 -0.0422
vn -0.1358 0.9895 -0.0494
vn -0.0514 0.9985 -0.0187
vn -0.1445 0.9895 0.0000
vn -0.0657 0.9978 0.0000
vn -0.1358 0.9895 0.0494
vn -0.0514 0.9985 0.0187
vn -0.1107 0.9895 0.0929
vn -0.0503 0.9978 0.0422
vn -0.0723 0.9895 0.1251
vn -0.0274 0.9985 0.0474
vn -0.0251 0.9895 0.1423
vn -0.0114 0.9978 0.0647
vn 0.0251 0.9895 0.1423
vn 0.0095 0.9985 0.0539
vn 0.0723 0.9895 0.1251
vn 0.0328 0.9978 0.0569
vn 0.1107 0.9895 0.0929
vn 0.0419 0.9985 0.0352
vn 0.1358 0.9895 0.0494
vn 0.0617 0.9978 0.0225
vn 0.2848 0.9530 -0.1037
vn 0.3031 0.9530 0.0000
vn 0.2322 0.9530 -0.1948
vn 0.1515 0.9530 -0.2625
vn 0.0526 0.9530 -0.2985
vn -0.0526 0.9530 -0.2985
vn -0.1515 0.9530 -0.2625
vn -0.2322 0.9530 -0.1948
vn -0.2848 0.9530 -0.1037
vn -0.3031 0.9530 -0.0000
vn -0.2848 0.9530 0.1037
vn -0.2322 0.9530 0.1948
vn -0.1515 0.9530 0.2625
vn -0.0526 0.9530 0.2985
vn 0.0526 0.9530 0.2985
vn 0.1515 0.9530 0.2625
vn 0.2322 0.9530 0.1948
vn 0.2848 0.9530 0.1037
vn -0.0000 1.0000 0.0000
vn 0.6233 -0.7484 -0.2269
vn 0.6633 -0.7484 -0.0000
vn 0.6233 -0.7484 0.2269
vn 0.5081 -0.7484 0.4264
vn 0.3316 -0.7484 0.5744
vn 0.1152 -0.7484 0.6532
vn -0.1152 -0.7484 0.6532
vn -0.3317 -0.7484 0.5744
vn -0.5081 -0.7484 0.4264
vn -0.6233 -0.7484 0.2269
vn -0.6633 -0.7484 -0.0000
vn -0.6233 -0.7484 -0.2269
vn -0.5081 -0.7484 -0.4264
vn -0.3317 -0.7484 -0.5744
vn -0.1152 -0.7484 -0.6532
vn 0.1152 -0.7484 -0.6532
vn 0.3317 -0.7484 -0.5744
vn 0.5081 -0.7484 -0.4264
vn 0.7423 -0.6700 -0.0000
vn 0.0000 -1.0000 -0.0000
# 129 vertex normals

vt 0.4828 0.6684 0.0000
vt 0.4828 0.0045 0.0000
vt 0.5340 0.0045 0.0000
vt 0.5340 0.6684 0.0000
vt 0.5853 0.0045 0.0000
vt 0.5853 0.6684 0.0000
vt 0.6365 0.0045 0.0000
vt 0.6365 0.6684 0.0000
vt 0.6878 0.0045 0.0000
vt 0.6878 0.6684 0.0000
vt 0.7390 0.0045 0.0000
vt 0.7390 0.6684 0.0000
vt 0.7903 0.0045 0.0000
vt 0.7903 0.6684 0.0000
vt 0.8415 0.0045 0.0000
vt 0.8415 0.6684 0.0000
vt 0.8927 0.0045 0.0000
vt 0.8927 0.6684 0.0000
vt 0.9440 0.0045 0.0000
vt 0.9440 0.6684 0.0000
vt 0.0216 0.0045 0.0000
vt 0.0729 0.0045 0.0000
vt 0.0729 0.6684 0.0000
vt 0.0216 0.6684 0.0000
vt 0.1241 0.0045 0.0000
vt 0.1241 0.6684 0.0000
vt 0.1753 0.0045 0.0000
vt 0.1754 0.6684 0.0000
vt 0.2266 0.0045 0.0000
vt 0.2266 0.6684 0.0000
vt 0.2778 0.0045 0.0000
vt 0.2778 0.6684 0.0000
vt 0.3291 0.0045 0.0000
vt 0.3291 0.6684 0.0000
vt 0.3803 0.0045 0.0000
vt 0.3803 0.6684 0.0000
vt 0.4316 0.0045 0.0000
vt 0.4316 0.6684 0.0000
vt 0.5266 0.9882 0.0000
vt 0.4737 0.9788 0.0000
vt 0.4785 0.9656 0.0000
vt 0.5266 0.9742 0.0000
vt 0.4273 0.9519 0.0000
vt 0.4363 0.9412 0.0000
vt 0.3929 0.9108 0.0000
vt 0.4050 0.9038 0.0000
vt 0.3747 0.8605 0.0000
vt 0.3884 0.8581 0.0000
vt 0.3747 0.8069 0.0000
vt 0.3884 0.8094 0.0000
vt 0.3929 0.7566 0.0000
vt 0.4050 0.7636 0.0000
vt 0.4273 0.7156 0.0000
vt 0.4363 0.7263 0.0000
vt 0.4737 0.6886 0.0000
vt 0.4784 0.7018 0.0000
vt 0.5266 0.6792 0.0000
vt 0.5265 0.6932 0.0000
vt 0.5795 0.6886 0.0000
vt 0.5746 0.7018 0.0000
vt 0.6258 0.7156 0.0000
vt 0.6168 0.7262 0.0000
vt 0.6602 0.7566 0.0000
vt 0.6481 0.7636 0.0000
vt 0.6784 0.8069 0.0000
vt 0.6647 0.8093 0.0000
vt 0.6784 0.8605 0.0000
vt 0.6647 0.8580 0.0000
vt 0.6602 0.9108 0.0000
vt 0.6481 0.9038 0.0000
vt 0.6258 0.9519 0.0000
vt 0.6168 0.9412 0.0000
vt 0.5795 0.9788 0.0000
vt 0.5747 0.9656 0.0000
vt 0.5054 0.8920 0.0000
vt 0.5205 0.8503 0.0000
vt 0.5266 0.8513 0.0000
vt 0.5266 0.8957 0.0000
vt 0.4868 0.8812 0.0000
vt 0.5153 0.8472 0.0000
vt 0.4729 0.8648 0.0000
vt 0.5113 0.8425 0.0000
vt 0.4655 0.8445 0.0000
vt 0.5092 0.8368 0.0000
vt 0.4655 0.8230 0.0000
vt 0.5092 0.8307 0.0000
vt 0.4728 0.8028 0.0000
vt 0.5113 0.8249 0.0000
vt 0.4867 0.7863 0.0000
vt 0.5152 0.8202 0.0000
vt 0.5053 0.7755 0.0000
vt 0.5205 0.8172 0.0000
vt 0.5265 0.7717 0.0000
vt 0.5265 0.8161 0.0000
vt 0.5477 0.7754 0.0000
vt 0.5326 0.8172 0.0000
vt 0.5663 0.7862 0.0000
vt 0.5379 0.8202 0.0000
vt 0.5802 0.8026 0.0000
vt 0.5418 0.8249 0.0000
vt 0.5876 0.8229 0.0000
vt 0.5439 0.8306 0.0000
vt 0.5876 0.8444 0.0000
vt 0.5439 0.8368 0.0000
vt 0.5803 0.8646 0.0000
vt 0.5418 0.8425 0.0000
vt 0.5665 0.8811 0.0000
vt 0.5379 0.8472 0.0000
vt 0.5478 0.8919 0.0000
vt 0.5326 0.8502 0.0000
vt 0.4916 0.9300 0.0000
vt 0.5266 0.9362 0.0000
vt 0.4608 0.9122 0.0000
vt 0.4379 0.8850 0.0000
vt 0.4257 0.8516 0.0000
vt 0.4257 0.8160 0.0000
vt 0.4378 0.7826 0.0000
vt 0.4606 0.7553 0.0000
vt 0.4914 0.7375 0.0000
vt 0.5265 0.7312 0.0000
vt 0.5615 0.7374 0.0000
vt 0.5923 0.7552 0.0000
vt 0.6152 0.7824 0.0000
vt 0.6274 0.8159 0.0000
vt 0.6274 0.8514 0.0000
vt 0.6153 0.8848 0.0000
vt 0.5925 0.9121 0.0000
vt 0.5617 0.9299 0.0000
vt 0.5266 0.8337 0.0000
vt 0.2188 0.9766 0.0000
vt 0.2217 0.9842 0.0000
vt 0.1674 0.9944 0.0000
vt 0.1674 0.9861 0.0000
vt 0.1132 0.9842 0.0000
vt 0.1160 0.9766 0.0000
vt 0.0659 0.9565 0.0000
vt 0.0711 0.9504 0.0000
vt 0.0309 0.9145 0.0000
vt 0.0378 0.9105 0.0000
vt 0.0123 0.8631 0.0000
vt 0.0201 0.8617 0.0000
vt 0.0123 0.8084 0.0000
vt 0.0201 0.8098 0.0000
vt 0.0309 0.7570 0.0000
vt 0.0378 0.7610 0.0000
vt 0.0659 0.7150 0.0000
vt 0.0711 0.7211 0.0000
vt 0.1132 0.6873 0.0000
vt 0.1160 0.6948 0.0000
vt 0.1674 0.6771 0.0000
vt 0.1674 0.6854 0.0000
vt 0.2217 0.6873 0.0000
vt 0.2188 0.6948 0.0000
vt 0.2689 0.7150 0.0000
vt 0.2638 0.7211 0.0000
vt 0.3040 0.7570 0.0000
vt 0.2971 0.7610 0.0000
vt 0.3226 0.8084 0.0000
vt 0.3148 0.8098 0.0000
vt 0.3226 0.8631 0.0000
vt 0.3148 0.8617 0.0000
vt 0.3040 0.9145 0.0000
vt 0.2971 0.9105 0.0000
vt 0.2689 0.9565 0.0000
vt 0.2638 0.9504 0.0000
vt 0.2149 0.9661 0.0000
vt 0.1674 0.9747 0.0000
vt 0.1199 0.9661 0.0000
vt 0.0783 0.9419 0.0000
vt 0.0475 0.9050 0.0000
vt 0.0311 0.8598 0.0000
vt 0.0311 0.8117 0.0000
vt 0.0475 0.7665 0.0000
vt 0.0783 0.7296 0.0000
vt 0.1199 0.7054 0.0000
vt 0.1674 0.6968 0.0000
vt 0.2149 0.7054 0.0000
vt 0.2566 0.7296 0.0000
vt 0.2874 0.7665 0.0000
vt 0.3038 0.8117 0.0000
vt 0.3038 0.8598 0.0000
vt 0.2874 0.9050 0.0000
vt 0.2566 0.9419 0.0000
vt 0.1674 0.8357 0.0000
# 184 texture coords

g trash_01
s 1
f 1/1/1 2/2/2 3/3/3 4/4/4 
f 3/3/3 5/5/5 6/6/6 4/4/4 
f 5/5/5 7/7/7 8/8/8 6/6/6 
f 7/7/7 9/9/9 10/10/10 8/8/8 
f 9/9/9 11/11/11 12/12/12 10/10/10 
f 11/11/11 13/13/13 14/14/14 12/12/12 
f 13/13/13 15/15/15 16/16/16 14/14/14 
f 15/15/15 17/17/17 18/18/18 16/16/16 
f 17/17/17 19/19/19 20/20/20 18/18/18 
f 19/21/19 21/22/21 22/23/22 20/24/20 
f 21/22/21 23/25/23 24/26/24 22/23/22 
f 23/25/23 25/27/25 26/28/26 24/26/24 
f 25/27/25 27/29/27 28/30/28 26/28/26 
f 27/29/27 29/31/29 30/32/30 28/30/28 
f 29/31/29 31/33/31 32/34/32 30/32/30 
f 31/33/31 33/35/33 34/36/34 32/34/32 
f 33/35/33 35/37/35 36/38/36 34/36/34 
f 35/37/35 2/2/2 1/1/1 36/38/36 
f 1/39/1 4/40/4 37/41/37 38/42/38 
f 4/40/4 6/43/6 39/44/39 37/41/37 
f 6/43/6 8/45/8 40/46/40 39/44/39 
f 8/45/8 10/47/10 41/48/41 40/46/40 
f 10/47/10 12/49/12 42/50/42 41/48/41 
f 12/49/12 14/51/14 43/52/43 42/50/42 
f 14/51/14 16/53/16 44/54/44 43/52/43 
f 16/53/16 18/55/18 45/56/45 44/54/44 
f 18/55/18 20/57/20 46/58/46 45/56/45 
f 20/57/20 22/59/22 47/60/47 46/58/46 
f 22/59/22 24/61/24 48/62/48 47/60/47 
f 24/61/24 26/63/26 49/64/49 48/62/48 
f 26/63/26 28/65/28 50/66/50 49/64/49 
f 28/65/28 30/67/30 51/68/51 50/66/50 
f 30/67/30 32/69/32 52/70/52 51/68/51 
f 32/69/32 34/71/34 53/72/53 52/70/52 
f 34/71/34 36/73/36 54/74/54 53/72/53 
f 36/73/36 1/39/1 38/42/38 54/74/54 
f 55/75/55 56/76/56 57/77/57 58/78/58 
f 59/79/59 60/80/60 56/76/56 55/75/55 
f 61/81/61 62/82/62 60/80/60 59/79/59 
f 63/83/63 64/84/64 62/82/62 61/81/61 
f 65/85/65 66/86/66 64/84/64 63/83/63 
f 67/87/67 68/88/68 66/86/66 65/85/65 
f 69/89/69 70/90/70 68/88/68 67/87/67 
f 71/91/71 72/92/72 70/90/70 69/89/69 
f 73/93/73 74/94/74 72/92/72 71/91/71 
f 75/95/75 76/96/76 74/94/74 73/93/73 
f 77/97/77 78/98/78 76/96/76 75/95/75 
f 79/99/79 80/100/80 78/98/78 77/97/77 
f 81/101/81 82/102/82 80/100/80 79/99/79 
f 83/103/83 84/104/84 82/102/82 81/101/81 
f 85/105/85 86/106/86 84/104/84 83/103/83 
f 87/107/87 88/108/88 86/106/86 85/105/85 
f 89/109/89 90/110/90 88/108/88 87/107/87 
f 58/78/58 57/77/57 90/110/90 89/109/89 
f 91/111/91 92/112/92 38/42/38 37/41/37 
f 93/113/93 91/111/91 37/41/37 39/44/39 
f 94/114/94 93/113/93 39/44/39 40/46/40 
f 95/115/95 94/114/94 40/46/40 41/48/41 
f 96/116/96 95/115/95 41/48/41 42/50/42 
f 97/117/97 96/116/96 42/50/42 43/52/43 
f 98/118/98 97/117/97 43/52/43 44/54/44 
f 99/119/99 98/118/98 44/54/44 45/56/45 
f 100/120/100 99/119/99 45/56/45 46/58/46 
f 101/121/101 100/120/100 46/58/46 47/60/47 
f 102/122/102 101/121/101 47/60/47 48/62/48 
f 103/123/103 102/122/102 48/62/48 49/64/49 
f 104/124/104 103/123/103 49/64/49 50/66/50 
f 105/125/105 104/124/104 50/66/50 51/68/51 
f 106/126/106 105/125/105 51/68/51 52/70/52 
f 107/127/107 106/126/106 52/70/52 53/72/53 
f 108/128/108 107/127/107 53/72/53 54/74/54 
f 92/112/92 108/128/108 54/74/54 38/42/38 
f 55/75/55 58/78/58 92/112/92 91/111/91 
f 59/79/59 55/75/55 91/111/91 93/113/93 
f 61/81/61 59/79/59 93/113/93 94/114/94 
f 63/83/63 61/81/61 94/114/94 95/115/95 
f 65/85/65 63/83/63 95/115/95 96/116/96 
f 67/87/67 65/85/65 96/116/96 97/117/97 
f 69/89/69 67/87/67 97/117/97 98/118/98 
f 71/91/71 69/89/69 98/118/98 99/119/99 
f 73/93/73 71/91/71 99/119/99 100/120/100 
f 75/95/75 73/93/73 100/120/100 101/121/101 
f 77/97/77 75/95/75 101/121/101 102/122/102 
f 79/99/79 77/97/77 102/122/102 103/123/103 
f 81/101/81 79/99/79 103/123/103 104/124/104 
f 83/103/83 81/101/81 104/124/104 105/125/105 
f 85/105/85 83/103/83 105/125/105 106/126/106 
f 87/107/87 85/105/85 106/126/106 107/127/107 
f 89/109/89 87/107/87 107/127/107 108/128/108 
f 58/78/58 89/109/89 108/128/108 92/112/92 
f 56/76/56 60/80/60 62/82/62 109/129/109 
f 62/82/62 64/84/64 66/86/66 109/129/109 
f 66/86/66 68/88/68 70/90/70 109/129/109 
f 70/90/70 72/92/72 74/94/74 109/129/109 
f 74/94/74 76/96/76 78/98/78 109/129/109 
f 78/98/78 80/100/80 82/102/82 109/129/109 
f 82/102/82 84/104/84 86/106/86 109/129/109 
f 86/106/86 88/108/88 90/110/90 109/129/109 
f 90/110/90 57/77/57 56/76/56 109/129/109 
f 110/130/110 3/131/3 2/132/2 111/133/111 
f 111/133/111 2/132/2 35/134/35 112/135/112 
f 112/135/112 35/134/35 33/136/33 113/137/113 
f 113/137/113 33/136/33 31/138/31 114/139/114 
f 114/139/114 31/138/31 29/140/29 115/141/115 
f 115/141/115 29/140/29 27/142/27 116/143/116 
f 116/143/116 27/142/27 25/144/25 117/145/117 
f 117/145/117 25/144/25 23/146/23 118/147/118 
f 118/147/118 23/146/23 21/148/21 119/149/119 
f 119/149/119 21/148/21 19/150/19 120/151/120 
f 120/151/120 19/150/19 17/152/17 121/153/121 
f 121/153/121 17/152/17 15/154/15 122/155/122 
f 122/155/122 15/154/15 13/156/13 123/157/123 
f 123/157/123 13/156/13 11/158/11 124/159/124 
f 124/159/124 11/158/11 9/160/9 125/161/125 
f 125/161/125 9/160/9 7/162/7 126/163/126 
f 126/163/126 7/162/7 5/164/5 127/165/127 
f 127/165/127 5/164/5 3/131/3 110/130/110 
f 128/166/3 110/130/110 111/133/111 129/167/128 
f 129/167/128 111/133/111 112/135/112 130/168/35 
f 130/168/35 112/135/112 113/137/113 131/169/33 
f 131/169/33 113/137/113 114/139/114 132/170/31 
f 132/170/31 114/139/114 115/141/115 133/171/29 
f 133/171/29 115/141/115 116/143/116 134/172/27 
f 134/172/27 116/143/116 117/145/117 135/173/25 
f 135/173/25 117/145/117 118/147/118 136/174/23 
f 136/174/23 118/147/118 119/149/119 137/175/21 
f 137/175/21 119/149/119 120/151/120 138/176/19 
f 138/176/19 120/151/120 121/153/121 139/177/17 
f 139/177/17 121/153/121 122/155/122 140/178/15 
f 140/178/15 122/155/122 123/157/123 141/179/13 
f 141/179/13 123/157/123 124/159/124 142/180/11 
f 142/180/11 124/159/124 125/161/125 143/181/9 
f 143/181/9 125/161/125 126/163/126 144/182/7 
f 144/182/7 126/163/126 127/165/127 145/183/5 
f 145/183/5 127/165/127 110/130/110 128/166/3 
f 128/166/3 129/167/128 130/168/35 146/184/129 
f 130/168/35 131/169/33 132/170/31 146/184/129 
f 132/170/31 133/171/29 134/172/27 146/184/129 
f 134/172/27 135/173/25 136/174/23 146/184/129 
f 136/174/23 137/175/21 138/176/19 146/184/129 
f 138/176/19 139/177/17 140/178/15 146/184/129 
f 140/178/15 141/179/13 142/180/11 146/184/129 
f 142/180/11 143/181/9 144/182/7 146/184/129 
f 144/182/7 145/183/5 128/166/3 146/184/129 
# 144 polygons

