# Blender v2.79 (sub 0) OBJ File: ''
# www.blender.org
mtllib cylinder_spikes.mtl
o Spikes.001
v 2.000000 1.329242 1.225742
v 2.225742 1.329242 1.000000
v 2.000000 1.039999 1.000000
v 2.000000 1.329242 0.774258
v 1.774258 1.329242 1.000000
v 2.080102 1.379242 1.079577
v 2.079577 1.379242 0.919898
v 2.000000 1.089999 1.000000
v 1.919898 1.379242 0.920423
v 1.920423 1.379242 1.080102
v 1.987423 1.059879 1.359971
v 2.218972 1.208127 1.197717
v 2.000000 0.989999 1.000000
v 1.999312 1.356376 1.019698
v 1.767763 1.208127 1.181953
v 2.306562 1.059879 1.189096
v 2.280181 1.208127 0.907591
v 2.000000 0.989999 1.000000
v 2.016776 1.356376 1.010348
v 2.043157 1.208127 1.291853
v 2.316043 1.059879 0.827215
v 2.058379 1.208127 0.710807
v 2.017294 1.356376 0.990545
v 2.274958 1.208127 1.106953
v 2.006289 1.059879 0.639865
v 1.777609 1.208127 0.806137
v 2.000000 0.989999 1.000000
v 2.000344 1.356376 0.980293
v 2.229024 1.208127 0.814020
v 1.690183 1.059879 0.816285
v 1.721475 1.208127 1.097287
v 2.000000 0.989999 1.000000
v 1.983046 1.356376 0.989947
v 1.951754 1.208127 0.708946
v 1.687022 1.059879 1.178277
v 1.946679 1.208127 1.290168
v 1.982873 1.356376 1.009756
v 1.723217 1.208127 0.897864
v 2.000000 1.059879 1.360191
v 2.225742 1.208127 1.189951
v 2.000000 1.356376 1.019710
v 1.774258 1.208127 1.189951
v 2.150000 0.010000 1.000000
v 2.135145 0.010000 0.934917
v 2.135145 0.989999 0.934917
v 2.150000 0.989999 1.000000
v 2.093523 0.010000 0.882725
v 2.093523 0.989999 0.882725
v 2.033378 0.010000 0.853761
v 2.033378 0.989999 0.853761
v 1.966622 0.010000 0.853761
v 1.966622 0.989999 0.853761
v 1.906477 0.010000 0.882725
v 1.906477 0.989999 0.882725
v 1.864855 0.010000 0.934917
v 1.864855 0.989999 0.934917
v 1.850000 0.010000 1.000000
v 1.850000 0.989999 1.000000
v 1.864855 0.010000 1.065083
v 1.864855 0.989999 1.065083
v 1.906476 0.010000 1.117275
v 1.906476 0.989999 1.117275
v 1.966622 0.010000 1.146239
v 1.966622 0.989999 1.146239
v 2.033378 0.010000 1.146239
v 2.033378 0.989999 1.146239
v 2.093524 0.010000 1.117275
v 2.093524 0.989999 1.117275
v 2.135145 0.010000 1.065082
v 2.135145 0.989999 1.065082
v 2.139871 0.999999 1.000000
v 2.126020 0.999999 0.939312
v 2.116663 0.999999 0.943818
v 2.129486 0.999999 1.000000
v 2.087208 0.999999 0.890644
v 2.080733 0.999999 0.898764
v 2.031124 0.999999 0.863635
v 2.028813 0.999999 0.873761
v 1.968876 0.999999 0.863635
v 1.971187 0.999999 0.873761
v 1.912792 0.999999 0.890644
v 1.919267 0.999999 0.898764
v 1.873980 0.999999 0.939312
v 1.883337 0.999999 0.943818
v 1.860129 0.999999 1.000000
v 1.870514 0.999999 1.000000
v 1.873980 0.999999 1.060688
v 1.883337 0.999999 1.056182
v 1.912792 0.999999 1.109356
v 1.919267 0.999999 1.101236
v 1.968876 0.999999 1.136365
v 1.971187 0.999999 1.126239
v 2.031124 0.999999 1.136365
v 2.028813 0.999999 1.126239
v 2.087208 0.999999 1.109356
v 2.080733 0.999999 1.101236
v 2.126020 0.999999 1.060688
v 2.116663 0.999999 1.056182
v 2.116663 0.949999 0.943818
v 2.129486 0.949999 1.000000
v 2.080733 0.949999 0.898764
v 2.028813 0.949999 0.873761
v 1.971187 0.949999 0.873761
v 1.919267 0.949999 0.898764
v 1.883337 0.949999 0.943818
v 1.870514 0.949999 1.000000
v 1.883337 0.949999 1.056182
v 1.919267 0.949999 1.101236
v 1.971187 0.949999 1.126239
v 2.028813 0.949999 1.126239
v 2.080733 0.949999 1.101236
v 2.116663 0.949999 1.056182
v 2.126020 0.000000 0.939312
v 2.139871 0.000000 1.000000
v 2.000000 0.000000 1.000000
v 2.126020 -0.000000 1.060688
v 2.087208 -0.000000 1.109356
v 2.031124 -0.000000 1.136365
v 1.968876 -0.000000 1.136365
v 1.912792 -0.000000 1.109356
v 1.873980 -0.000000 1.060688
v 1.860129 -0.000000 1.000000
v 1.873980 0.000000 0.939312
v 1.912792 0.000000 0.890644
v 1.968876 0.000000 0.863635
v 2.031124 0.000000 0.863635
v 2.087208 0.000000 0.890644
v 2.000000 0.949999 1.000000
v 1.904449 0.989999 1.095551
v 1.938131 0.989999 1.123738
v 1.930000 0.973458 1.070000
v 1.876262 0.989999 1.061869
v 2.000000 0.989999 1.140000
v 2.000000 0.976540 1.090916
v 2.061869 0.989999 1.123738
v 2.070000 0.973458 1.070000
v 2.095551 0.989999 1.095551
v 2.123738 0.989999 1.061869
v 1.860000 0.989999 1.000000
v 1.909084 0.976540 1.000000
v 2.000000 0.992520 1.000000
v 2.090916 0.976540 1.000000
v 2.140000 0.989999 1.000000
v 1.930000 0.973458 0.930000
v 1.876262 0.989999 0.938131
v 2.000000 0.976540 0.909084
v 2.070000 0.973458 0.930000
v 2.123738 0.989999 0.938131
v 1.904449 0.989999 0.904449
v 1.938131 0.989999 0.876262
v 2.000000 0.989999 0.860000
v 2.061869 0.989999 0.876262
v 2.095551 0.989999 0.904449
vt 0.010100 0.989900
vt 0.010100 0.010100
vt 0.500000 0.500000
vt 0.989900 0.010100
vt 0.989900 0.989900
vt 0.010100 0.989900
vt 0.010100 0.010100
vt 0.500000 0.500000
vt 0.989900 0.010100
vt 0.989900 0.989900
vt 0.010100 0.989900
vt 0.010100 0.010100
vt 0.500000 0.500000
vt 0.989900 0.010100
vt 0.989900 0.989900
vt 0.010100 0.989900
vt 0.010100 0.010100
vt 0.500000 0.500000
vt 0.989900 0.010100
vt 0.989900 0.989900
vt 0.010100 0.989900
vt 0.010100 0.010100
vt 0.989900 0.010100
vt 0.989900 0.989900
vt 0.010100 0.989900
vt 0.010100 0.010100
vt 0.500000 0.500000
vt 0.989900 0.010100
vt 0.989900 0.989900
vt 0.010100 0.989900
vt 0.010100 0.010100
vt 0.500000 0.500000
vt 0.989900 0.010100
vt 0.989900 0.989900
vt 0.010100 0.989900
vt 0.010100 0.010100
vt 0.989900 0.010100
vt 0.989900 0.989900
vt 0.010100 0.989900
vt 0.010100 0.010100
vt 0.989900 0.010100
vt 0.989900 0.989900
vt 0.014300 0.067900
vt 0.066600 0.067900
vt 0.066600 0.887000
vt 0.014300 0.887000
vt 0.118900 0.067900
vt 0.118900 0.887000
vt 0.171200 0.067900
vt 0.171200 0.887000
vt 0.223500 0.067900
vt 0.223500 0.887000
vt 0.275800 0.067900
vt 0.275800 0.887000
vt 0.328100 0.067900
vt 0.328100 0.887000
vt 0.380400 0.067900
vt 0.380400 0.887000
vt 0.432700 0.067900
vt 0.432700 0.887000
vt 0.485000 0.067900
vt 0.485000 0.887000
vt 0.537300 0.067900
vt 0.537300 0.887000
vt 0.589600 0.067900
vt 0.589600 0.887000
vt 0.641800 0.067900
vt 0.641800 0.887000
vt 0.694100 0.067900
vt 0.694100 0.887000
vt 0.746400 0.067900
vt 0.746400 0.887000
vt 0.014300 0.899600
vt 0.066600 0.899600
vt 0.066600 0.917400
vt 0.014300 0.917400
vt 0.118900 0.899600
vt 0.118900 0.917400
vt 0.171200 0.899600
vt 0.171200 0.917400
vt 0.223500 0.899600
vt 0.223500 0.917400
vt 0.275800 0.899600
vt 0.275800 0.917400
vt 0.328100 0.899600
vt 0.328100 0.917400
vt 0.380400 0.899600
vt 0.380400 0.917400
vt 0.432700 0.899600
vt 0.432700 0.917400
vt 0.485000 0.899600
vt 0.485000 0.917400
vt 0.537300 0.899600
vt 0.537300 0.917400
vt 0.589600 0.899600
vt 0.589600 0.917400
vt 0.641800 0.899600
vt 0.641800 0.917400
vt 0.694100 0.899600
vt 0.694100 0.917400
vt 0.746400 0.899600
vt 0.746400 0.917400
vt 0.768200 0.243100
vt 0.756600 0.192400
vt 0.873400 0.192400
vt 0.768200 0.141700
vt 0.800600 0.101100
vt 0.847400 0.078500
vt 0.899400 0.078500
vt 0.946200 0.101100
vt 0.978600 0.141700
vt 0.990200 0.192400
vt 0.978600 0.243100
vt 0.946200 0.283700
vt 0.899400 0.306300
vt 0.847400 0.306300
vt 0.800600 0.283700
vt 0.066600 0.056100
vt 0.014300 0.056100
vt 0.118900 0.056100
vt 0.171200 0.056100
vt 0.223500 0.056100
vt 0.275800 0.056100
vt 0.328100 0.056100
vt 0.380400 0.056100
vt 0.432700 0.056100
vt 0.485000 0.056100
vt 0.537300 0.056100
vt 0.589600 0.056100
vt 0.641800 0.056100
vt 0.694100 0.056100
vt 0.746400 0.056100
vt 0.066600 0.959100
vt 0.014300 0.959100
vt 0.118900 0.959100
vt 0.171200 0.959100
vt 0.223500 0.959100
vt 0.275800 0.959100
vt 0.328100 0.959100
vt 0.380400 0.959100
vt 0.432700 0.959100
vt 0.485000 0.959100
vt 0.537300 0.959100
vt 0.589600 0.959100
vt 0.641800 0.959100
vt 0.694100 0.959100
vt 0.746400 0.959100
vt 0.765600 0.435700
vt 0.776300 0.388800
vt 0.873700 0.435700
vt 0.806300 0.351200
vt 0.849700 0.330300
vt 0.897800 0.330300
vt 0.941200 0.351200
vt 0.971200 0.388800
vt 0.981900 0.435700
vt 0.971200 0.482600
vt 0.941200 0.520200
vt 0.897800 0.541100
vt 0.849700 0.541100
vt 0.806300 0.520200
vt 0.776300 0.482600
vt 0.159100 0.159100
vt 0.279300 0.058500
vt 0.250200 0.250200
vt 0.058500 0.279300
vt 0.500000 0.000500
vt 0.500000 0.175600
vt 0.720700 0.058500
vt 0.749800 0.250200
vt 0.840900 0.159100
vt 0.941500 0.279300
vt 0.000500 0.500000
vt 0.175600 0.500000
vt 0.500000 0.500000
vt 0.824400 0.500000
vt 0.999500 0.500000
vt 0.250200 0.749800
vt 0.058500 0.720700
vt 0.500000 0.824400
vt 0.749800 0.749800
vt 0.941500 0.720700
vt 0.159100 0.840900
vt 0.279300 0.941500
vt 0.500000 0.999500
vt 0.720700 0.941500
vt 0.840900 0.840900
vn 0.0000 0.6153 -0.7883
vn -0.7883 0.6153 -0.0000
vn 0.0000 1.0000 0.0000
vn 0.0000 0.6153 0.7883
vn 0.7883 0.6153 -0.0000
vn -0.6609 0.3636 -0.6565
vn -0.6565 0.3636 0.6609
vn 0.6609 0.3636 0.6565
vn 0.6565 0.3636 -0.6609
vn 0.0067 0.9817 -0.1903
vn -0.8020 0.4640 0.3763
vn -0.0327 -0.3507 0.9359
vn -0.0349 -0.0537 0.9979
vn 0.7737 0.4640 0.4313
vn -0.1621 0.9817 -0.1000
vn -0.0700 0.4640 0.8831
vn 0.7971 -0.3505 0.4917
vn 0.8499 -0.0537 0.5242
vn 0.7578 0.4640 -0.4588
vn -0.1671 0.9817 0.0914
vn 0.7327 0.4640 0.4979
vn 0.8217 -0.3507 -0.4492
vn 0.8762 -0.0537 -0.4790
vn -0.0236 0.4640 -0.8855
vn -0.0033 0.9817 0.1904
vn 0.7953 0.4640 -0.3902
vn 0.0164 -0.3505 -0.9364
vn 0.0174 -0.0537 -0.9984
vn -0.7812 0.4640 -0.4178
vn 0.1638 0.9817 0.0971
vn 0.0545 0.4640 -0.8842
vn -0.8055 -0.3507 -0.4777
vn -0.8589 -0.0537 -0.5093
vn -0.7496 0.4640 0.4720
vn 0.1655 0.9817 -0.0943
vn -0.7413 0.4640 -0.4850
vn -0.8138 -0.3505 0.4635
vn -0.8677 -0.0537 0.4942
vn 0.0391 0.4640 0.8850
vn 0.0000 0.9817 -0.1905
vn -0.7883 0.4640 0.4040
vn -0.0000 -0.3507 0.9365
vn 0.0000 -0.0537 0.9986
vn 0.7883 0.4640 0.4040
vn 1.0000 0.0029 -0.0000
vn 0.9010 0.0029 -0.4339
vn 0.9010 -0.0058 -0.4339
vn 1.0000 -0.0058 0.0000
vn 0.6235 0.0029 -0.7818
vn 0.6235 -0.0058 -0.7818
vn 0.2225 0.0029 -0.9749
vn 0.2225 -0.0058 -0.9749
vn -0.2225 0.0029 -0.9749
vn -0.2225 -0.0058 -0.9749
vn -0.6235 0.0029 -0.7818
vn -0.6235 -0.0058 -0.7818
vn -0.9010 0.0029 -0.4339
vn -0.9009 -0.0058 -0.4339
vn -1.0000 0.0029 -0.0000
vn -1.0000 -0.0058 -0.0000
vn -0.9010 0.0029 0.4339
vn -0.9010 -0.0058 0.4339
vn -0.6235 0.0029 0.7818
vn -0.6235 -0.0058 0.7818
vn -0.2225 0.0029 0.9749
vn -0.2225 -0.0058 0.9749
vn 0.2225 0.0029 0.9749
vn 0.2225 -0.0058 0.9749
vn 0.6235 0.0029 0.7818
vn 0.6235 -0.0058 0.7818
vn 0.9010 0.0029 0.4339
vn 0.9010 -0.0058 0.4339
vn 0.0003 1.0000 0.0000
vn 0.0003 1.0000 -0.0001
vn 0.0002 1.0000 -0.0003
vn 0.0001 1.0000 -0.0003
vn -0.0001 1.0000 -0.0003
vn -0.0002 1.0000 -0.0003
vn -0.0003 1.0000 -0.0001
vn -0.0003 1.0000 -0.0000
vn -0.0003 1.0000 0.0001
vn -0.0003 1.0000 0.0003
vn -0.0001 1.0000 0.0003
vn 0.0001 1.0000 0.0003
vn 0.0002 1.0000 0.0003
vn 0.0003 1.0000 0.0002
vn 0.0001 -1.0000 -0.0001
vn 0.0001 -1.0000 0.0000
vn 0.0000 -1.0000 -0.0000
vn 0.0001 -1.0000 0.0001
vn 0.0000 -1.0000 0.0001
vn -0.0001 -1.0000 0.0001
vn -0.0001 -1.0000 0.0000
vn -0.0001 -1.0000 -0.0001
vn -0.0000 -1.0000 -0.0001
vn -1.0000 0.0000 0.0000
vn -0.9010 0.0000 0.4339
vn -0.6235 0.0000 0.7818
vn -0.2225 0.0000 0.9749
vn 0.2225 0.0000 0.9749
vn 0.6235 0.0000 0.7818
vn 0.9010 0.0000 0.4339
vn 1.0000 0.0000 0.0000
vn 0.9010 0.0000 -0.4339
vn 0.6235 0.0000 -0.7818
vn 0.2225 0.0000 -0.9749
vn -0.2225 0.0000 -0.9749
vn -0.6235 0.0000 -0.7818
vn -0.9010 0.0000 -0.4339
vn 0.2943 0.9093 -0.2943
vn 0.1253 0.9493 -0.2885
vn -0.3673 0.8407 0.3978
vn 0.2885 0.9493 -0.1253
vn -0.0000 0.9587 -0.2843
vn 0.0000 0.8598 0.5106
vn -0.1253 0.9493 -0.2885
vn 0.3978 0.8407 0.3673
vn -0.2943 0.9093 -0.2943
vn -0.2885 0.9493 -0.1253
vn 0.2843 0.9587 0.0000
vn -0.5106 0.8598 0.0000
vn 0.5569 0.8306 0.0002
vn -0.2843 0.9587 -0.0000
vn -0.3602 0.8244 -0.4366
vn 0.2885 0.9493 0.1253
vn 0.0000 0.8598 -0.5106
vn 0.3602 0.8244 -0.4366
vn -0.2885 0.9493 0.1253
vn 0.2943 0.9093 0.2943
vn 0.1253 0.9493 0.2885
vn 0.0000 0.9587 0.2843
vn -0.1253 0.9493 0.2885
vn -0.2943 0.9093 0.2943
usemtl Spikes
s 1
f 1/1/1 2/2/2 3/3/3
f 2/2/2 4/4/4 3/3/3
f 4/4/4 5/5/5 3/3/3
f 5/5/5 1/1/1 3/3/3
s 2
f 6/6/6 7/7/7 8/8/3
f 7/7/7 9/9/8 8/8/3
f 9/9/8 10/10/9 8/8/3
f 10/10/9 6/6/6 8/8/3
s 3
f 11/11/10 12/12/11 13/13/12
f 12/12/11 14/14/13 13/13/12
f 14/14/13 15/15/14 13/13/12
f 15/15/14 11/11/10 13/13/12
s 4
f 16/16/15 17/17/16 18/18/17
f 17/17/16 19/19/18 18/18/17
f 19/19/18 20/20/19 18/18/17
f 20/20/19 16/16/15 18/18/17
s 5
f 21/21/20 22/22/21 18/18/22
f 22/22/21 23/23/23 18/18/22
f 23/23/23 24/24/24 18/18/22
f 24/24/24 21/21/20 18/18/22
s 6
f 25/25/25 26/26/26 27/27/27
f 26/26/26 28/28/28 27/27/27
f 28/28/28 29/29/29 27/27/27
f 29/29/29 25/25/25 27/27/27
s 7
f 30/30/30 31/31/31 32/32/32
f 31/31/31 33/33/33 32/32/32
f 33/33/33 34/34/34 32/32/32
f 34/34/34 30/30/30 32/32/32
s 8
f 35/35/35 36/36/36 32/32/37
f 36/36/36 37/37/38 32/32/37
f 37/37/38 38/38/39 32/32/37
f 38/38/39 35/35/35 32/32/37
s 9
f 39/39/40 40/40/41 13/13/42
f 40/40/41 41/41/43 13/13/42
f 41/41/43 42/42/44 13/13/42
f 42/42/44 39/39/40 13/13/42
usemtl Pot
s 10
f 43/43/45 44/44/46 45/45/47 46/46/48
f 44/44/46 47/47/49 48/48/50 45/45/47
f 47/47/49 49/49/51 50/50/52 48/48/50
f 49/49/51 51/51/53 52/52/54 50/50/52
f 51/51/53 53/53/55 54/54/56 52/52/54
f 53/53/55 55/55/57 56/56/58 54/54/56
f 55/55/57 57/57/59 58/58/60 56/56/58
f 57/57/59 59/59/61 60/60/62 58/58/60
f 59/59/61 61/61/63 62/62/64 60/60/62
f 61/61/63 63/63/65 64/64/66 62/62/64
f 63/63/65 65/65/67 66/66/68 64/64/66
f 65/65/67 67/67/69 68/68/70 66/66/68
f 67/67/69 69/69/71 70/70/72 68/68/70
f 69/69/71 43/71/45 46/72/48 70/70/72
f 71/73/73 72/74/74 73/75/3 74/76/3
f 72/74/74 75/77/75 76/78/3 73/75/3
f 75/77/75 77/79/76 78/80/3 76/78/3
f 77/79/76 79/81/77 80/82/3 78/80/3
f 79/81/77 81/83/78 82/84/3 80/82/3
f 81/83/78 83/85/79 84/86/3 82/84/3
f 83/85/79 85/87/80 86/88/3 84/86/3
f 85/87/80 87/89/81 88/90/3 86/88/3
f 87/89/81 89/91/82 90/92/3 88/90/3
f 89/91/82 91/93/83 92/94/3 90/92/3
f 91/93/83 93/95/84 94/96/3 92/94/3
f 93/95/84 95/97/85 96/98/3 94/96/3
f 95/97/85 97/99/86 98/100/3 96/98/3
f 97/99/86 71/101/73 74/102/3 98/100/3
f 113/103/87 114/104/88 115/105/89
f 114/104/88 116/106/88 115/105/89
f 116/106/88 117/107/90 115/105/89
f 117/107/90 118/108/91 115/105/89
f 118/108/91 119/109/91 115/105/89
f 119/109/91 120/110/92 115/105/89
f 120/110/92 121/111/93 115/105/89
f 121/111/93 122/112/93 115/105/89
f 122/112/93 123/113/93 115/105/89
f 123/113/93 124/114/94 115/105/89
f 124/114/94 125/115/95 115/105/89
f 125/115/95 126/116/95 115/105/89
f 126/116/95 127/117/87 115/105/89
f 127/117/87 113/103/87 115/105/89
f 113/118/87 44/44/46 43/43/45 114/119/88
f 71/73/73 46/46/48 45/45/47 72/74/74
f 127/120/87 47/47/49 44/44/46 113/118/87
f 72/74/74 45/45/47 48/48/50 75/77/75
f 126/121/95 49/49/51 47/47/49 127/120/87
f 75/77/75 48/48/50 50/50/52 77/79/76
f 125/122/95 51/51/53 49/49/51 126/121/95
f 77/79/76 50/50/52 52/52/54 79/81/77
f 124/123/94 53/53/55 51/51/53 125/122/95
f 79/81/77 52/52/54 54/54/56 81/83/78
f 123/124/93 55/55/57 53/53/55 124/123/94
f 81/83/78 54/54/56 56/56/58 83/85/79
f 122/125/93 57/57/59 55/55/57 123/124/93
f 83/85/79 56/56/58 58/58/60 85/87/80
f 121/126/93 59/59/61 57/57/59 122/125/93
f 85/87/80 58/58/60 60/60/62 87/89/81
f 120/127/92 61/61/63 59/59/61 121/126/93
f 87/89/81 60/60/62 62/62/64 89/91/82
f 119/128/91 63/63/65 61/61/63 120/127/92
f 89/91/82 62/62/64 64/64/66 91/93/83
f 118/129/91 65/65/67 63/63/65 119/128/91
f 91/93/83 64/64/66 66/66/68 93/95/84
f 117/130/90 67/67/69 65/65/67 118/129/91
f 93/95/84 66/66/68 68/68/70 95/97/85
f 116/131/88 69/69/71 67/67/69 117/130/90
f 95/97/85 68/68/70 70/70/72 97/99/86
f 114/132/88 43/71/45 69/69/71 116/131/88
f 97/99/86 70/70/72 46/72/48 71/101/73
s 11
f 74/76/96 73/75/97 99/133/97 100/134/96
f 73/75/97 76/78/98 101/135/98 99/133/97
f 76/78/98 78/80/99 102/136/99 101/135/98
f 78/80/99 80/82/100 103/137/100 102/136/99
f 80/82/100 82/84/101 104/138/101 103/137/100
f 82/84/101 84/86/102 105/139/102 104/138/101
f 84/86/102 86/88/103 106/140/103 105/139/102
f 86/88/103 88/90/104 107/141/104 106/140/103
f 88/90/104 90/92/105 108/142/105 107/141/104
f 90/92/105 92/94/106 109/143/106 108/142/105
f 92/94/106 94/96/107 110/144/107 109/143/106
f 94/96/107 96/98/108 111/145/108 110/144/107
f 96/98/108 98/100/109 112/146/109 111/145/108
f 98/100/109 74/102/96 100/147/96 112/146/109
s 12
f 100/148/3 99/149/3 128/150/3
f 99/149/3 101/151/3 128/150/3
f 101/151/3 102/152/3 128/150/3
f 102/152/3 103/153/3 128/150/3
f 103/153/3 104/154/3 128/150/3
f 104/154/3 105/155/3 128/150/3
f 105/155/3 106/156/3 128/150/3
f 106/156/3 107/157/3 128/150/3
f 107/157/3 108/158/3 128/150/3
f 108/158/3 109/159/3 128/150/3
f 109/159/3 110/160/3 128/150/3
f 110/160/3 111/161/3 128/150/3
f 111/161/3 112/162/3 128/150/3
f 112/162/3 100/148/3 128/150/3
usemtl cover
s 13
f 129/163/110 130/164/111 131/165/112 132/166/113
f 131/165/112 130/164/111 133/167/114 134/168/115
f 133/167/114 135/169/116 136/170/117 134/168/115
f 136/170/117 135/169/116 137/171/118 138/172/119
f 139/173/120 132/166/113 131/165/112 140/174/121
f 131/165/112 134/168/115 141/175/3 140/174/121
f 141/175/3 134/168/115 136/170/117 142/176/122
f 136/170/117 138/172/119 143/177/123 142/176/122
f 139/173/120 140/174/121 144/178/124 145/179/125
f 144/178/124 140/174/121 141/175/3 146/180/126
f 141/175/3 142/176/122 147/181/127 146/180/126
f 147/181/127 142/176/122 143/177/123 148/182/128
f 149/183/129 145/179/125 144/178/124 150/184/130
f 144/178/124 146/180/126 151/185/131 150/184/130
f 151/185/131 146/180/126 147/181/127 152/186/132
f 147/181/127 148/182/128 153/187/133 152/186/132
