# Blender v2.79 (sub 0) OBJ File: ''
# www.blender.org
mtllib square_spikes.mtl
o Square.001
v 2.125414 -0.009594 2.903017
v 2.125414 -0.009594 3.070084
v 1.958346 -0.009594 3.070084
v 1.958346 -0.009594 2.903017
v 2.177778 0.937952 2.850652
v 1.905982 0.937952 2.850652
v 1.905982 0.937952 3.122448
v 2.177778 0.937952 3.122448
v 2.187111 0.977868 3.141774
v 1.896649 0.977868 3.141774
v 1.957744 0.000361 3.080680
v 2.126016 0.000361 3.080680
v 2.197104 0.977868 2.841320
v 2.197104 0.977868 3.131781
v 2.136010 0.000361 3.070687
v 2.136010 0.000361 2.902414
v 1.896649 0.977868 2.831326
v 2.187111 0.977868 2.831326
v 2.126016 0.000361 2.892420
v 1.957744 0.000361 2.892420
v 1.886657 0.977868 3.131781
v 1.886657 0.977868 2.841320
v 1.947750 0.000361 2.902414
v 1.947750 0.000361 3.070687
v 1.896008 0.987823 3.132423
v 2.187752 0.987823 3.132423
v 1.896008 0.987823 2.840678
v 2.187752 0.987823 2.840678
v 2.177778 0.987823 3.122448
v 1.905982 0.987823 3.122448
v 2.177778 0.987823 2.850652
v 1.905982 0.987823 2.850652
v 2.041880 1.319603 3.212295
v 2.267622 1.319603 2.986553
v 2.041880 1.030361 2.986553
v 2.041880 1.319603 2.760811
v 1.816138 1.319603 2.986553
v 2.121982 1.369603 3.066130
v 2.121457 1.369603 2.906451
v 2.041880 1.080361 2.986553
v 1.961778 1.369603 2.906976
v 1.962303 1.369603 3.066655
v 2.029303 1.050241 3.346524
v 2.260852 1.198488 3.184270
v 2.041880 0.980361 2.986553
v 2.041192 1.346737 3.006251
v 1.809643 1.198488 3.168506
v 2.348442 1.050241 3.175649
v 2.322061 1.198488 2.894144
v 2.041880 0.980361 2.986553
v 2.058656 1.346737 2.996901
v 2.085037 1.198488 3.278406
v 2.357923 1.050241 2.813768
v 2.100259 1.198489 2.697361
v 2.059174 1.346737 2.977098
v 2.316838 1.198488 3.093506
v 2.048169 1.050241 2.626418
v 1.819489 1.198489 2.792690
v 2.041880 0.980361 2.986553
v 2.042224 1.346737 2.966846
v 2.270904 1.198489 2.800573
v 1.732064 1.050241 2.802838
v 1.763355 1.198488 3.083840
v 2.041880 0.980361 2.986553
v 2.024926 1.346737 2.976500
v 1.993634 1.198489 2.695498
v 1.728902 1.050241 3.164830
v 1.988559 1.198488 3.276721
v 2.024753 1.346737 2.996309
v 1.765097 1.198488 2.884417
v 2.041880 1.050241 3.346744
v 2.267622 1.198488 3.176504
v 2.041880 1.346737 3.006263
v 1.816138 1.198488 3.176504
v 1.901880 0.980355 3.126553
v 1.971880 0.980355 3.126553
v 1.971880 0.963814 3.056553
v 1.901880 0.980355 3.056553
v 2.041880 0.980355 3.126553
v 2.041880 0.966896 3.077469
v 2.111880 0.980355 3.126553
v 2.111880 0.963814 3.056553
v 2.181880 0.980355 3.126553
v 2.181880 0.980355 3.056553
v 1.901880 0.980355 2.986553
v 1.950964 0.966896 2.986553
v 2.041880 0.982876 2.986553
v 2.132796 0.966896 2.986553
v 2.181880 0.980355 2.986553
v 1.971880 0.963814 2.916553
v 1.901880 0.980355 2.916553
v 2.041880 0.966896 2.895637
v 2.111880 0.963814 2.916553
v 2.181880 0.980355 2.916553
v 1.901880 0.980355 2.846553
v 1.971880 0.980355 2.846553
v 2.041880 0.980355 2.846553
v 2.111880 0.980355 2.846553
v 2.181880 0.980355 2.846553
vt 0.326100 0.920600
vt 0.202700 0.920600
vt 0.202700 0.797300
vt 0.326100 0.797300
vt 0.215100 0.735300
vt 0.000500 0.734600
vt 0.048400 0.010900
vt 0.172800 0.011500
vt 0.897300 0.735200
vt 0.682600 0.734600
vt 0.730300 0.010900
vt 0.854600 0.011500
vt 0.669900 0.735300
vt 0.455300 0.734600
vt 0.503200 0.010900
vt 0.627500 0.011500
vt 0.442500 0.735300
vt 0.227900 0.734600
vt 0.275800 0.010900
vt 0.400100 0.011500
vt 0.410100 0.009300
vt 0.401400 0.001100
vt 0.174000 0.001100
vt 0.182700 0.009300
vt 0.637500 0.009300
vt 0.628800 0.001100
vt 0.855800 0.001100
vt 0.864500 0.009200
vt 0.452500 0.736500
vt 0.444700 0.744800
vt 0.225100 0.736500
vt 0.217300 0.744800
vt 0.679900 0.736500
vt 0.672100 0.744800
vt 0.907300 0.736400
vt 0.899500 0.744700
vt 0.276400 0.000000
vt 0.503800 0.000000
vt 0.730800 0.000000
vt 0.049000 0.000000
vt 0.000000 0.744800
vt 0.682200 0.744700
vt 0.454800 0.744800
vt 0.227400 0.744800
vt 0.209900 0.752200
vt 0.007400 0.752200
vt 0.892100 0.752200
vt 0.689600 0.752200
vt 0.664700 0.752200
vt 0.462200 0.752200
vt 0.437300 0.752200
vt 0.234800 0.752200
vt 0.000000 0.797300
vt 0.200700 0.797300
vt 0.200700 0.998000
vt 0.000000 0.998000
vt 0.209900 0.789400
vt 0.007400 0.789400
vt 0.892100 0.789300
vt 0.689600 0.789300
vt 0.664700 0.789400
vt 0.462200 0.789400
vt 0.437300 0.789400
vt 0.234800 0.789400
vt 0.010100 0.989900
vt 0.010100 0.010100
vt 0.500000 0.500000
vt 0.989900 0.010100
vt 0.989900 0.989900
vt 0.010100 0.989900
vt 0.010100 0.010100
vt 0.500000 0.500000
vt 0.989900 0.010100
vt 0.989900 0.989900
vt 0.010100 0.989900
vt 0.010100 0.010100
vt 0.500000 0.500000
vt 0.989900 0.010100
vt 0.989900 0.989900
vt 0.010100 0.989900
vt 0.010100 0.010100
vt 0.500000 0.500000
vt 0.989900 0.010100
vt 0.989900 0.989900
vt 0.010100 0.989900
vt 0.010100 0.010100
vt 0.989900 0.010100
vt 0.989900 0.989900
vt 0.010100 0.989900
vt 0.010100 0.010100
vt 0.500000 0.500000
vt 0.989900 0.010100
vt 0.989900 0.989900
vt 0.010100 0.989900
vt 0.010100 0.010100
vt 0.500000 0.500000
vt 0.989900 0.010100
vt 0.989900 0.989900
vt 0.010100 0.989900
vt 0.010100 0.010100
vt 0.989900 0.010100
vt 0.989900 0.989900
vt 0.010100 0.989900
vt 0.010100 0.010100
vt 0.989900 0.010100
vt 0.989900 0.989900
vt 0.000500 0.000500
vt 0.250200 0.000500
vt 0.250200 0.250200
vt 0.000500 0.250200
vt 0.500000 0.000500
vt 0.500000 0.175600
vt 0.749800 0.000500
vt 0.749800 0.250200
vt 0.999500 0.000500
vt 0.999500 0.250200
vt 0.000500 0.500000
vt 0.175600 0.500000
vt 0.500000 0.500000
vt 0.824400 0.500000
vt 0.999500 0.500000
vt 0.250200 0.749800
vt 0.000500 0.749800
vt 0.500000 0.824400
vt 0.749800 0.749800
vt 0.999500 0.749800
vt 0.000500 0.999500
vt 0.250200 0.999500
vt 0.500000 0.999500
vt 0.749800 0.999500
vt 0.999500 0.999500
vn 0.0000 -1.0000 0.0000
vn 0.0075 0.0061 1.0000
vn -0.0075 0.0061 1.0000
vn -0.0072 -0.0085 0.9999
vn 0.0072 -0.0085 0.9999
vn 1.0000 0.0002 0.0000
vn 1.0000 0.0001 0.0000
vn 1.0000 -0.0000 0.0000
vn -0.0005 0.0004 -1.0000
vn 0.0005 0.0004 -1.0000
vn 0.0004 -0.0005 -1.0000
vn -0.0004 -0.0005 -1.0000
vn -1.0000 0.0001 0.0001
vn -1.0000 0.0001 -0.0001
vn -1.0000 -0.0001 -0.0001
vn -1.0000 -0.0001 0.0001
vn -0.0008 1.0000 0.0008
vn 0.0008 1.0000 0.0008
vn -0.0008 1.0000 -0.0008
vn 0.0008 1.0000 -0.0008
vn -0.0000 1.0000 0.0000
vn 0.0000 0.0000 -1.0000
vn -1.0000 0.0000 0.0000
vn 0.0000 0.0000 1.0000
vn -0.0000 0.6153 -0.7883
vn -0.7883 0.6153 -0.0000
vn -0.0000 0.6153 0.7883
vn 0.7883 0.6153 -0.0000
vn -0.6609 0.3636 -0.6565
vn -0.6565 0.3636 0.6609
vn 0.6609 0.3636 0.6565
vn 0.6565 0.3636 -0.6609
vn 0.0067 0.9817 -0.1903
vn -0.8020 0.4640 0.3763
vn -0.0327 -0.3507 0.9359
vn -0.0349 -0.0537 0.9979
vn 0.7737 0.4640 0.4313
vn -0.1621 0.9817 -0.1000
vn -0.0700 0.4640 0.8831
vn 0.7971 -0.3505 0.4917
vn 0.8499 -0.0537 0.5242
vn 0.7578 0.4640 -0.4588
vn -0.1671 0.9817 0.0914
vn 0.7327 0.4640 0.4979
vn 0.8217 -0.3507 -0.4492
vn 0.8762 -0.0537 -0.4790
vn -0.0236 0.4640 -0.8855
vn -0.0033 0.9817 0.1904
vn 0.7953 0.4640 -0.3902
vn 0.0164 -0.3505 -0.9364
vn 0.0174 -0.0537 -0.9984
vn -0.7812 0.4640 -0.4178
vn 0.1638 0.9817 0.0971
vn 0.0545 0.4640 -0.8842
vn -0.8055 -0.3507 -0.4777
vn -0.8589 -0.0537 -0.5093
vn -0.7496 0.4640 0.4720
vn 0.1655 0.9817 -0.0943
vn -0.7413 0.4640 -0.4850
vn -0.8138 -0.3505 0.4635
vn -0.8677 -0.0537 0.4942
vn 0.0391 0.4640 0.8850
vn 0.0000 0.9817 -0.1905
vn -0.7883 0.4640 0.4040
vn -0.0000 -0.3507 0.9365
vn 0.0000 -0.0537 0.9986
vn 0.7883 0.4640 0.4040
vn 0.1165 0.9863 -0.1165
vn 0.0661 0.9813 -0.1810
vn -0.3673 0.8407 0.3979
vn 0.1810 0.9813 -0.0661
vn 0.0000 0.9697 -0.2443
vn -0.0000 0.8598 0.5106
vn -0.0661 0.9813 -0.1810
vn 0.3978 0.8407 0.3673
vn -0.1165 0.9863 -0.1165
vn -0.1810 0.9813 -0.0661
vn 0.2443 0.9697 -0.0000
vn -0.5106 0.8598 -0.0000
vn 0.5569 0.8306 -0.0001
vn -0.2443 0.9697 -0.0000
vn -0.3602 0.8244 -0.4366
vn 0.1810 0.9813 0.0661
vn -0.0000 0.8598 -0.5106
vn 0.3602 0.8244 -0.4366
vn -0.1810 0.9813 0.0661
vn 0.1165 0.9863 0.1165
vn 0.0661 0.9813 0.1810
vn 0.0000 0.9697 0.2443
vn -0.0661 0.9813 0.1810
vn -0.1165 0.9863 0.1165
usemtl Pot
s 1
f 1/1/1 2/2/1 3/3/1 4/4/1
f 9/5/2 10/6/3 11/7/4 12/8/5
f 13/9/6 14/10/7 15/11/8 16/12/8
f 17/13/9 18/14/10 19/15/11 20/16/12
f 21/17/13 22/18/14 23/19/15 24/20/16
f 11/21/4 24/20/16 3/22/1
f 2/23/1 15/24/8 12/8/5
f 23/25/15 20/16/12 4/26/1
f 1/27/1 19/28/11 16/12/8
f 10/29/3 25/30/17 21/17/13
f 14/31/7 26/32/18 9/5/2
f 22/33/14 27/34/19 17/13/9
f 18/35/10 28/36/20 13/9/6
f 23/19/15 4/37/1 3/22/1 24/20/16
f 19/15/11 1/38/1 4/26/1 20/16/12
f 15/11/8 2/39/1 1/27/1 16/12/8
f 11/7/4 3/40/1 2/23/1 12/8/5
f 9/5/2 26/32/18 25/41/17 10/6/3
f 13/9/6 28/36/20 26/42/18 14/10/7
f 17/13/9 27/34/19 28/43/20 18/14/10
f 21/17/13 25/30/17 27/44/19 22/18/14
f 14/31/7 9/5/2 12/8/5 15/24/8
f 24/20/16 11/21/4 10/29/3 21/17/13
f 18/35/10 13/9/6 16/12/8 19/28/11
f 22/33/14 17/13/9 20/16/12 23/25/15
f 29/45/21 30/46/21 25/41/17 26/32/18
f 31/47/21 29/48/21 26/42/18 28/36/20
f 32/49/21 31/50/21 28/43/20 27/34/19
f 30/51/21 32/52/21 27/44/19 25/30/17
s 2
f 5/53/21 6/54/21 7/55/21 8/56/21
s 3
f 8/57/22 7/58/22 30/46/22 29/45/22
s 4
f 5/59/23 8/60/23 29/48/23 31/47/23
s 5
f 6/61/24 5/62/24 31/50/24 32/49/24
s 6
f 7/63/8 6/64/8 32/52/8 30/51/8
usemtl Spikes
s 7
f 33/65/25 34/66/26 35/67/21
f 34/66/26 36/68/27 35/67/21
f 36/68/27 37/69/28 35/67/21
f 37/69/28 33/65/25 35/67/21
s 8
f 38/70/29 39/71/30 40/72/21
f 39/71/30 41/73/31 40/72/21
f 41/73/31 42/74/32 40/72/21
f 42/74/32 38/70/29 40/72/21
s 9
f 43/75/33 44/76/34 45/77/35
f 44/76/34 46/78/36 45/77/35
f 46/78/36 47/79/37 45/77/35
f 47/79/37 43/75/33 45/77/35
s 10
f 48/80/38 49/81/39 50/82/40
f 49/81/39 51/83/41 50/82/40
f 51/83/41 52/84/42 50/82/40
f 52/84/42 48/80/38 50/82/40
s 11
f 53/85/43 54/86/44 50/82/45
f 54/86/44 55/87/46 50/82/45
f 55/87/46 56/88/47 50/82/45
f 56/88/47 53/85/43 50/82/45
s 12
f 57/89/48 58/90/49 59/91/50
f 58/90/49 60/92/51 59/91/50
f 60/92/51 61/93/52 59/91/50
f 61/93/52 57/89/48 59/91/50
s 13
f 62/94/53 63/95/54 64/96/55
f 63/95/54 65/97/56 64/96/55
f 65/97/56 66/98/57 64/96/55
f 66/98/57 62/94/53 64/96/55
s 14
f 67/99/58 68/100/59 64/96/60
f 68/100/59 69/101/61 64/96/60
f 69/101/61 70/102/62 64/96/60
f 70/102/62 67/99/58 64/96/60
s 15
f 71/103/63 72/104/64 45/77/65
f 72/104/64 73/105/66 45/77/65
f 73/105/66 74/106/67 45/77/65
f 74/106/67 71/103/63 45/77/65
usemtl cover
s 16
f 75/107/68 76/108/69 77/109/70 78/110/71
f 77/109/70 76/108/69 79/111/72 80/112/73
f 79/111/72 81/113/74 82/114/75 80/112/73
f 82/114/75 81/113/74 83/115/76 84/116/77
f 85/117/78 78/110/71 77/109/70 86/118/79
f 77/109/70 80/112/73 87/119/21 86/118/79
f 87/119/21 80/112/73 82/114/75 88/120/80
f 82/114/75 84/116/77 89/121/81 88/120/80
f 85/117/78 86/118/79 90/122/82 91/123/83
f 90/122/82 86/118/79 87/119/21 92/124/84
f 87/119/21 88/120/80 93/125/85 92/124/84
f 93/125/85 88/120/80 89/121/81 94/126/86
f 95/127/87 91/123/83 90/122/82 96/128/88
f 90/122/82 92/124/84 97/129/89 96/128/88
f 97/129/89 92/124/84 93/125/85 98/130/90
f 93/125/85 94/126/86 99/131/91 98/130/90
