# Blender v2.79 (sub 0) OBJ File: ''
# www.blender.org
mtllib triangle_pine.mtl
o Triangle.004
v 0.894480 0.006266 -0.947526
v 1.007063 0.006266 -1.142526
v 1.119646 0.006266 -0.947526
v 1.131967 0.016266 -0.946186
v 1.012063 0.016266 -1.153866
v 1.012063 0.996265 -1.153866
v 1.131967 0.996265 -0.946186
v 1.002063 0.016266 -1.153866
v 0.882159 0.016266 -0.946186
v 0.882159 0.996265 -0.946186
v 1.002063 0.996265 -1.153866
v 0.887159 0.016266 -0.937526
v 1.126967 0.016266 -0.937526
v 1.126967 0.996265 -0.937526
v 0.887159 0.996265 -0.937526
v 1.119646 1.006265 -0.947526
v 1.007063 1.006265 -1.142526
v 0.894480 1.006265 -0.947526
v 1.007063 1.006265 -1.122526
v 1.102326 1.006265 -0.957526
v 0.911800 1.006265 -0.957526
v 1.007063 0.956265 -1.012526
v 0.924465 0.991324 -0.941726
v 0.965764 0.991324 -0.941726
v 0.965764 0.981565 -0.971227
v 0.924465 0.991324 -0.971227
v 1.007063 0.991324 -0.941726
v 1.007063 0.983383 -0.958887
v 1.048362 0.991324 -0.941726
v 1.048362 0.981565 -0.971227
v 1.089661 0.991324 -0.941726
v 1.089661 0.991324 -0.971227
v 0.924465 0.991324 -1.012526
v 0.953424 0.983383 -1.012526
v 1.007063 0.992811 -1.012526
v 1.060702 0.983383 -1.012526
v 1.089661 0.991324 -1.012526
v 0.965764 0.981565 -1.053825
v 0.950284 0.991324 -1.053825
v 1.007063 0.983383 -1.066164
v 1.048362 0.981565 -1.053825
v 1.063842 0.991324 -1.053825
v 0.976824 0.991324 -1.095123
v 0.982581 0.991324 -1.095123
v 1.007063 0.991324 -1.095123
v 1.031545 0.991324 -1.095123
v 1.037302 0.991324 -1.095123
v 1.073205 1.031420 -0.902921
v 0.968627 1.065580 -0.891820
v 0.942086 1.000095 -0.978743
v 1.017069 0.990299 -0.995944
v 1.067238 1.000116 -1.054266
v 1.131770 1.065434 -0.990270
v 1.033526 1.186397 -0.812015
v 1.112663 1.173805 -0.837534
v 1.172127 1.187009 -0.895654
v 0.984610 1.237503 -1.052143
v 1.088595 1.194776 -1.060853
v 1.063566 1.072689 -1.060959
v 0.992915 1.095374 -1.037290
v 0.936646 1.072642 -0.988447
v 0.922983 1.194375 -0.968373
v 1.099113 1.318066 -1.022241
v 1.015921 1.390627 -0.996964
v 0.956587 1.332672 -0.944237
v 1.029606 1.237518 -0.972962
v 0.925650 1.194786 -0.964014
v 0.950670 1.072689 -0.963964
v 1.021267 1.095376 -0.987793
v 1.077426 1.072645 -1.036765
v 1.091032 1.194402 -1.056868
v 0.915048 1.318057 -1.002637
v 0.998168 1.390612 -1.028069
v 1.057365 1.332623 -1.080969
v 1.046653 1.237513 -1.035025
v 1.055483 1.194788 -0.931053
v 1.055561 1.072693 -0.956078
v 1.031812 1.095375 -1.026702
v 0.982904 1.072641 -1.082915
v 0.962816 1.194379 -1.096549
v 1.016866 1.318069 -0.920493
v 0.991509 1.390618 -1.003651
v 0.938700 1.332631 -1.062913
v 0.967524 1.237511 -0.989938
v 0.958459 1.194789 -1.093878
v 0.958437 1.072686 -1.068864
v 0.982346 1.095374 -0.998294
v 1.031381 1.072648 -0.942191
v 1.051500 1.194413 -0.928611
v 0.997092 1.318058 -1.104520
v 1.022595 1.390622 -1.021438
v 1.075581 1.332636 -0.962303
v 0.969267 1.161616 -1.078678
v 1.076479 1.140820 -1.083081
v 1.065295 1.012886 -1.057932
v 0.992191 1.029275 -1.038556
v 0.938375 1.012841 -0.985420
v 0.911031 1.140734 -0.988556
v 1.064101 1.314223 -1.075854
v 0.984057 1.320626 -1.052794
v 0.923542 1.314452 -0.995548
v 1.045008 1.161624 -0.946459
v 0.937807 1.140820 -0.941813
v 0.948934 1.012886 -0.966987
v 1.021994 1.029278 -0.986530
v 1.075690 1.012843 -1.039788
v 1.103040 1.140740 -1.036713
v 0.950168 1.314224 -0.949068
v 1.030160 1.320635 -0.972311
v 1.090545 1.314460 -1.029691
v 1.073173 1.161620 -1.050395
v 1.077697 1.140826 -0.943190
v 1.052536 1.012890 -0.954345
v 1.033076 1.029277 -1.027426
v 0.979879 1.012840 -1.081182
v 0.982984 1.140734 -1.108529
v 1.070456 1.314231 -0.955559
v 1.047305 1.320631 -1.035577
v 0.989991 1.314452 -1.096026
v 0.941039 1.161618 -0.974506
v 0.936272 1.140815 -1.081700
v 0.961458 1.012883 -1.070603
v 0.981084 1.029276 -0.997566
v 1.034402 1.012846 -0.943930
v 1.031359 1.140744 -0.916576
v 0.943541 1.314215 -1.069348
v 0.966874 1.320629 -0.989383
v 1.024324 1.314465 -0.929063
v 0.955265 1.125049 -1.103186
v 1.064024 1.123437 -1.104879
v 1.067737 1.007565 -1.053660
v 0.992754 1.015554 -1.037570
v 0.940817 1.007539 -0.981146
v 0.898577 1.123261 -1.010355
v 1.031676 1.293610 -1.132608
v 0.950763 1.294132 -1.111066
v 0.891117 1.293402 -1.052302
v 1.059066 1.125060 -0.921982
v 0.950311 1.123439 -0.920043
v 0.946483 1.007564 -0.971255
v 1.021428 1.015556 -0.987514
v 1.073238 1.007542 -1.044055
v 1.115544 1.123269 -1.014943
v 0.982722 1.293625 -0.892388
v 1.063586 1.294147 -0.914113
v 1.123099 1.293424 -0.973012
v 1.097666 1.125055 -1.064426
v 1.099482 1.123442 -0.955669
v 1.048265 1.007568 -0.951899
v 1.032091 1.015555 -1.026863
v 0.975608 1.007538 -1.078737
v 1.004769 1.123263 -1.121009
v 1.127173 1.293622 -0.988049
v 1.105540 1.294140 -1.068936
v 1.046708 1.293412 -1.128516
v 0.916578 1.125053 -0.960420
v 0.914516 1.123430 -1.069173
v 0.965724 1.007562 -1.073059
v 0.982068 1.015554 -0.998132
v 1.038668 1.007544 -0.946387
v 1.009603 1.123271 -0.904048
v 0.886897 1.293607 -1.036731
v 0.908714 1.294132 -0.955892
v 0.967681 1.293426 -0.896446
v 0.889529 1.078182 -1.041304
v 0.961578 1.094675 -1.121750
v 1.023760 0.999300 -1.083683
v 0.982414 0.998854 -1.018561
v 0.988996 0.999306 -0.941704
v 0.916260 1.094876 -0.936672
v 0.887261 1.247129 -1.125191
v 0.847422 1.242575 -1.051615
v 0.848760 1.248086 -0.967955
v 1.124662 1.078190 -0.984013
v 1.052795 1.094688 -0.903404
v 0.990527 0.999303 -0.941331
v 1.031725 0.998856 -1.006546
v 1.024970 0.999302 -1.083388
v 1.097694 1.094878 -1.088584
v 1.127120 1.247151 -0.900131
v 1.166792 1.242598 -0.973799
v 1.165264 1.248093 -1.057454
v 1.035709 1.078185 -1.130092
v 1.116236 1.094682 -1.058134
v 1.078240 0.999303 -0.995909
v 1.013071 0.998855 -1.037181
v 0.936220 0.999301 -1.030513
v 0.931106 1.094872 -1.103242
v 1.119594 1.247140 -1.132455
v 1.045971 1.242586 -1.172210
v 0.962313 1.248085 -1.170777
v 0.978683 1.078189 -0.894895
v 0.897993 1.094680 -0.966670
v 0.935849 0.999297 -1.028982
v 1.001111 0.998856 -0.987857
v 1.077946 0.999306 -0.994699
v 1.083225 1.094884 -0.921981
v 0.894804 1.247141 -0.892342
v 0.968517 1.242603 -0.852753
v 1.052171 1.248099 -0.854376
v 1.116743 1.031412 -1.078543
v 1.127725 1.065583 -0.973954
v 1.040773 1.000100 -0.947511
v 1.023656 0.990298 -1.022514
v 0.965391 1.000112 -1.072747
v 1.029461 1.065429 -1.137207
v 1.207604 1.186385 -1.038761
v 1.182174 1.173790 -1.117927
v 1.124121 1.186999 -1.177457
v 0.941169 1.031404 -1.122279
v 1.045772 1.065578 -1.133144
v 1.072116 1.000097 -1.046162
v 0.997094 0.990297 -1.029131
v 0.946793 1.000115 -0.970922
v 0.882407 1.065426 -1.035064
v 0.981054 1.186377 -1.213096
v 0.901860 1.173777 -1.187755
v 0.842264 1.186987 -1.129770
v 0.897234 1.031407 -0.946757
v 0.886488 1.065575 -1.051371
v 0.973501 1.000093 -1.077616
v 0.990447 0.990298 -1.002576
v 1.048599 1.000118 -0.952209
v 0.984383 1.065437 -0.887895
v 0.806463 1.186370 -0.986744
v 0.831714 1.173779 -0.907521
v 0.889631 1.187005 -0.847860
vt 0.794600 0.835600
vt 0.704600 0.991500
vt 0.614600 0.835600
vt 0.209500 0.022800
vt 0.401200 0.022800
vt 0.401200 0.806300
vt 0.209500 0.806300
vt 0.409200 0.022800
vt 0.600900 0.022700
vt 0.600900 0.806300
vt 0.409200 0.806300
vt 0.608900 0.022700
vt 0.800600 0.022700
vt 0.800600 0.806300
vt 0.608900 0.806300
vt 0.201500 0.022800
vt 0.205500 0.010700
vt 0.405200 0.010700
vt 0.604900 0.010700
vt 0.205500 0.818400
vt 0.201500 0.806300
vt 0.405200 0.818400
vt 0.604900 0.818400
vt 0.395300 0.011400
vt 0.215300 0.011400
vt 0.595100 0.011400
vt 0.415000 0.011400
vt 0.794800 0.011400
vt 0.614800 0.011400
vt 0.395300 0.817600
vt 0.215300 0.817600
vt 0.595100 0.817600
vt 0.415000 0.817600
vt 0.794800 0.817600
vt 0.614800 0.817600
vt 0.511500 0.990100
vt 0.421300 0.833800
vt 0.434100 0.841200
vt 0.511500 0.975400
vt 0.601700 0.833800
vt 0.589000 0.841200
vt 0.511500 0.885900
vt 0.000500 0.000500
vt 0.250200 0.000500
vt 0.250200 0.192600
vt 0.000500 0.192600
vt 0.500000 0.000500
vt 0.500000 0.112300
vt 0.749800 0.000500
vt 0.749800 0.192600
vt 0.999500 0.000500
vt 0.999500 0.192600
vt 0.000500 0.461600
vt 0.175600 0.461600
vt 0.500000 0.461600
vt 0.824400 0.461600
vt 0.999500 0.461600
vt 0.250200 0.730500
vt 0.156600 0.730500
vt 0.500000 0.810900
vt 0.749800 0.730500
vt 0.843400 0.730500
vt 0.317100 0.999500
vt 0.351900 0.999500
vt 0.500000 0.999500
vt 0.648100 0.999500
vt 0.682900 0.999500
vt 0.500000 0.500000
vt 0.000000 0.500000
vt 0.000000 0.000000
vt 0.500000 0.000000
vt 1.000000 0.000000
vt 1.000000 0.500000
vt 0.000000 1.000000
vt 0.500000 1.000000
vt 1.000000 1.000000
vt 0.500000 0.500000
vt 0.000000 0.500000
vt 0.000000 0.000000
vt 0.500000 0.000000
vt 1.000000 0.000000
vt 1.000000 0.500000
vt 0.000000 1.000000
vt 0.500000 1.000000
vt 1.000000 1.000000
vt 0.500000 0.500000
vt 0.000000 0.500000
vt 0.000000 0.000000
vt 0.500000 0.000000
vt 1.000000 0.000000
vt 1.000000 0.500000
vt 0.000000 1.000000
vt 0.500000 1.000000
vt 1.000000 1.000000
vt 0.500000 0.500000
vt 0.000000 0.500000
vt 0.000000 0.000000
vt 0.500000 0.000000
vt 1.000000 0.000000
vt 1.000000 0.500000
vt 0.000000 1.000000
vt 0.500000 1.000000
vt 1.000000 1.000000
vt 0.500000 0.500000
vt 0.000000 0.500000
vt 0.000000 0.000000
vt 0.500000 0.000000
vt 1.000000 0.000000
vt 1.000000 0.500000
vt 0.000000 1.000000
vt 0.500000 1.000000
vt 1.000000 1.000000
vt 0.500000 0.500000
vt 0.000000 0.500000
vt 0.000000 0.000000
vt 0.500000 0.000000
vt 1.000000 0.000000
vt 1.000000 0.500000
vt 0.000000 1.000000
vt 0.500000 1.000000
vt 1.000000 1.000000
vt 0.500000 0.500000
vt 0.000000 0.500000
vt 0.000000 0.000000
vt 0.500000 0.000000
vt 1.000000 0.000000
vt 1.000000 0.500000
vt 0.000000 1.000000
vt 0.500000 1.000000
vt 1.000000 1.000000
vt 0.500000 0.500000
vt 0.000000 0.500000
vt 0.000000 0.000000
vt 0.500000 0.000000
vt 1.000000 0.000000
vt 1.000000 0.500000
vt 0.000000 1.000000
vt 0.500000 1.000000
vt 1.000000 1.000000
vt 0.500000 0.500000
vt 0.000000 0.500000
vt 0.000000 0.000000
vt 0.500000 0.000000
vt 1.000000 0.000000
vt 1.000000 0.500000
vt 0.000000 1.000000
vt 0.500000 1.000000
vt 1.000000 1.000000
vt 0.500000 0.500000
vt 0.000000 0.500000
vt 0.000000 0.000000
vt 0.500000 0.000000
vt 1.000000 0.000000
vt 1.000000 0.500000
vt 0.000000 1.000000
vt 0.500000 1.000000
vt 1.000000 1.000000
vt 0.500000 0.500000
vt 0.000000 0.500000
vt 0.000000 0.000000
vt 0.500000 0.000000
vt 1.000000 0.000000
vt 1.000000 0.500000
vt 0.000000 1.000000
vt 0.500000 1.000000
vt 1.000000 1.000000
vt 0.500000 0.500000
vt 0.000000 0.500000
vt 0.000000 0.000000
vt 0.500000 0.000000
vt 1.000000 0.000000
vt 1.000000 0.500000
vt 0.000000 1.000000
vt 0.500000 1.000000
vt 1.000000 1.000000
vt 0.500000 0.500000
vt 0.000000 0.500000
vt 0.000000 0.000000
vt 0.500000 0.000000
vt 1.000000 0.000000
vt 1.000000 0.500000
vt 0.000000 1.000000
vt 0.500000 1.000000
vt 1.000000 1.000000
vt 0.500000 0.500000
vt 0.000000 0.500000
vt 0.000000 0.000000
vt 0.500000 0.000000
vt 1.000000 0.000000
vt 1.000000 0.500000
vt 0.000000 1.000000
vt 0.500000 1.000000
vt 1.000000 1.000000
vt 0.500000 0.500000
vt 0.000000 0.500000
vt 0.000000 0.000000
vt 0.500000 0.000000
vt 1.000000 0.000000
vt 1.000000 0.500000
vt 0.000000 1.000000
vt 0.500000 1.000000
vt 1.000000 1.000000
vt 0.500000 0.500000
vt 0.000000 0.500000
vt 0.000000 0.000000
vt 0.500000 0.000000
vt 1.000000 0.000000
vt 1.000000 0.500000
vt 0.000000 1.000000
vt 0.500000 1.000000
vt 1.000000 1.000000
vt 0.500000 0.500000
vt 0.000000 0.500000
vt 0.000000 0.000000
vt 0.500000 0.000000
vt 1.000000 0.000000
vt 1.000000 0.500000
vt 0.000000 1.000000
vt 0.500000 1.000000
vt 1.000000 1.000000
vt 0.500000 0.500000
vt 0.000000 0.500000
vt 0.000000 0.000000
vt 0.500000 0.000000
vt 1.000000 0.000000
vt 1.000000 0.500000
vt 0.000000 1.000000
vt 0.500000 1.000000
vt 1.000000 1.000000
vt 0.500000 0.500000
vt 0.000000 0.500000
vt 0.000000 0.000000
vt 0.500000 0.000000
vt 1.000000 0.000000
vt 1.000000 0.500000
vt 0.000000 1.000000
vt 0.500000 1.000000
vt 1.000000 1.000000
vt 0.500000 0.500000
vt 0.000000 0.500000
vt 0.000000 0.000000
vt 0.500000 0.000000
vt 1.000000 0.000000
vt 1.000000 0.500000
vt 0.000000 1.000000
vt 0.500000 1.000000
vt 1.000000 1.000000
vn 0.0000 -1.0000 -0.0000
vn 0.8660 -0.0000 -0.5000
vn 0.8660 0.0001 -0.5000
vn -0.8660 -0.0000 -0.5000
vn -0.8660 -0.0001 -0.5000
vn -0.0001 -0.0001 1.0000
vn 0.0002 -0.0001 1.0000
vn 0.0001 0.0001 1.0000
vn -0.0002 0.0001 1.0000
vn 0.0000 1.0000 0.0000
vn -0.5826 0.7399 0.3363
vn 0.5826 0.7399 0.3363
vn 0.0000 0.7399 -0.6727
vn 0.1158 0.9800 -0.1621
vn 0.0745 0.9628 -0.2598
vn 0.1809 0.9795 -0.0890
vn -0.3673 0.8407 0.3978
vn 0.0000 0.9350 -0.3547
vn -0.0000 0.8598 0.5106
vn -0.0745 0.9628 -0.2598
vn 0.3978 0.8407 0.3674
vn -0.1158 0.9800 -0.1621
vn -0.1809 0.9795 -0.0890
vn 0.2941 0.9544 0.0502
vn -0.5106 0.8598 -0.0001
vn 0.5569 0.8306 0.0000
vn -0.2941 0.9544 0.0502
vn 0.3659 0.9187 0.1488
vn 0.3780 0.9026 0.2061
vn 0.0950 0.9897 0.1067
vn -0.0000 0.9956 0.0940
vn 0.1337 0.9820 -0.1337
vn -0.3059 0.9194 0.2472
vn -0.3781 0.9026 0.2061
vn 0.3969 0.8638 0.3104
vn 0.1662 0.9463 0.2773
vn -0.0000 0.9686 0.2488
vn -0.1662 0.9463 0.2773
vn -0.3969 0.8638 0.3104
vn 0.3497 -0.7365 0.5790
vn -0.0384 -0.6880 0.7247
vn -0.1172 -0.8299 0.5455
vn 0.2268 -0.8982 0.3766
vn 0.5365 -0.8304 0.1506
vn 0.6594 -0.6877 0.3037
vn 0.0535 0.0032 0.9986
vn 0.5175 -0.0523 0.8541
vn 0.8590 0.0047 0.5119
vn -0.2227 0.8889 -0.4004
vn -0.0922 0.5230 -0.8473
vn -0.1974 -0.0422 -0.9794
vn -0.4901 -0.0473 -0.8704
vn -0.7346 -0.0478 -0.6768
vn -0.6708 0.5161 -0.5326
vn 0.2236 0.8889 0.3999
vn 0.0941 0.5230 0.8471
vn 0.1996 -0.0422 0.9790
vn 0.4921 -0.0472 0.8693
vn 0.7362 -0.0477 0.6751
vn 0.6721 0.5162 0.5308
vn 0.4002 0.8888 -0.2232
vn 0.8472 0.5230 -0.0932
vn 0.9792 -0.0422 -0.1985
vn 0.8698 -0.0473 -0.4911
vn 0.6760 -0.0478 -0.7354
vn 0.5317 0.5161 -0.6715
vn -0.0000 1.0000 -0.0001
vn -0.3997 0.8889 0.2240
vn -0.8470 0.5230 0.0950
vn -0.9787 -0.0422 0.2007
vn -0.8687 -0.0472 0.4931
vn -0.6742 -0.0477 0.7370
vn -0.5300 0.5162 0.6728
vn -0.4527 0.4089 -0.7924
vn -0.1477 0.3754 -0.9150
vn -0.1766 -0.2469 -0.9528
vn -0.4789 -0.2606 -0.8383
vn -0.7310 -0.2469 -0.6361
vn -0.7132 0.3753 -0.5921
vn 0.4545 0.4089 0.7914
vn 0.1498 0.3754 0.9147
vn 0.1788 -0.2469 0.9524
vn 0.4808 -0.2606 0.8372
vn 0.7325 -0.2469 0.6345
vn 0.7145 0.3753 0.5904
vn 0.7919 0.4089 -0.4536
vn 0.9148 0.3754 -0.1488
vn 0.9526 -0.2469 -0.1776
vn 0.8378 -0.2606 -0.4798
vn 0.6353 -0.2469 -0.7317
vn 0.5913 0.3753 -0.7138
vn -0.7909 0.4089 0.4554
vn -0.9145 0.3754 0.1508
vn -0.9522 -0.2469 0.1798
vn -0.8367 -0.2606 0.4818
vn -0.6336 -0.2469 0.7332
vn -0.5896 0.3753 0.7152
vn -0.4730 -0.3007 -0.8282
vn -0.1172 -0.3144 -0.9420
vn -0.1093 -0.4732 -0.8742
vn -0.4285 -0.5030 -0.7506
vn -0.6971 -0.4735 -0.5384
vn -0.7516 -0.3148 -0.5796
vn 0.0001 1.0000 -0.0000
vn 0.4749 -0.3007 0.8271
vn 0.1194 -0.3144 0.9417
vn 0.1113 -0.4732 0.8739
vn 0.4302 -0.5030 0.7496
vn 0.6983 -0.4735 0.5369
vn 0.7529 -0.3148 0.5779
vn 0.8277 -0.3007 -0.4739
vn 0.9419 -0.3144 -0.1183
vn 0.8740 -0.4732 -0.1103
vn 0.7501 -0.5030 -0.4294
vn 0.5376 -0.4735 -0.6977
vn 0.5788 -0.3148 -0.7523
vn 0.0000 1.0000 0.0001
vn -0.8266 -0.3007 0.4758
vn -0.9416 -0.3145 0.1205
vn -0.8738 -0.4732 0.1123
vn -0.7491 -0.5030 0.4311
vn -0.5360 -0.4735 0.6989
vn -0.5770 -0.3148 0.7536
vn -0.8306 -0.5186 -0.2027
vn -0.6614 -0.5020 -0.5573
vn -0.5502 -0.6644 -0.5059
vn -0.6820 -0.7121 -0.1665
vn -0.7219 -0.6639 0.1952
vn -0.8444 -0.5010 0.1899
vn -0.4431 0.8269 -0.3462
vn -0.5500 0.8245 -0.1332
vn -0.5526 0.8271 0.1033
vn 0.8311 -0.5186 0.2008
vn 0.6627 -0.5020 0.5558
vn 0.5513 -0.6644 0.5047
vn 0.6824 -0.7121 0.1650
vn 0.7215 -0.6638 -0.1968
vn 0.8440 -0.5010 -0.1918
vn 0.4438 0.8270 0.3452
vn 0.5503 0.8245 0.1320
vn 0.5523 0.8271 -0.1045
vn 0.2018 -0.5186 -0.8309
vn 0.5566 -0.5020 -0.6620
vn 0.5053 -0.6644 -0.5507
vn 0.1658 -0.7121 -0.6822
vn -0.1960 -0.6639 -0.7217
vn -0.1908 -0.5010 -0.8442
vn 0.3457 0.8269 -0.4434
vn 0.1325 0.8245 -0.5502
vn -0.1040 0.8271 -0.5524
vn -0.1999 -0.5186 0.8313
vn -0.5550 -0.5020 0.6633
vn -0.5040 -0.6644 0.5519
vn -0.1642 -0.7121 0.6826
vn 0.1977 -0.6638 0.7213
vn 0.1928 -0.5009 0.8437
vn -0.3446 0.8270 0.4443
vn -0.1313 0.8245 0.5505
vn 0.1051 0.8271 0.5522
vn 0.5794 -0.7365 -0.3490
vn 0.7247 -0.6880 0.0393
vn 0.5453 -0.8299 0.1179
vn 0.3768 -0.8982 -0.2264
vn 0.1512 -0.8304 -0.5363
vn 0.3045 -0.6878 -0.6590
vn 0.9986 0.0032 -0.0523
vn 0.8547 -0.0523 -0.5165
vn 0.5129 0.0047 -0.8584
vn -0.3483 -0.7366 -0.5798
vn 0.0401 -0.6880 -0.7246
vn 0.1185 -0.8299 -0.5452
vn -0.2259 -0.8982 -0.3770
vn -0.5361 -0.8304 -0.1517
vn -0.6587 -0.6878 -0.3052
vn -0.0511 0.0032 -0.9987
vn -0.5155 -0.0524 -0.8553
vn -0.8579 0.0047 -0.5138
vn -0.5802 -0.7366 0.3477
vn -0.7246 -0.6880 -0.0409
vn -0.5450 -0.8299 -0.1191
vn -0.3773 -0.8982 0.2255
vn -0.1523 -0.8304 0.5360
vn -0.3059 -0.6877 0.6584
vn -0.9987 0.0032 0.0500
vn -0.8558 -0.0524 0.5146
vn -0.5148 0.0047 0.8573
usemtl Pot
s 1
f 1/1/1 2/2/1 3/3/1
f 4/4/2 5/5/2 6/6/2 7/7/3
f 8/8/4 9/9/5 10/10/4 11/11/4
f 12/12/6 13/13/7 14/14/8 15/15/9
f 4/4/2 13/16/7 3/17/1
f 2/18/1 8/8/4 5/5/2
f 12/12/6 9/9/5 1/19/1
f 7/7/3 16/20/10 14/21/8
f 11/11/4 17/22/10 6/6/2
f 15/15/9 18/23/10 10/10/4
f 2/24/1 5/5/2 4/4/2 3/25/1
f 1/26/1 9/9/5 8/8/4 2/27/1
f 3/28/1 13/13/7 12/12/6 1/29/1
f 6/6/2 17/30/10 16/31/10 7/7/3
f 7/7/3 14/21/8 13/16/7 4/4/2
f 5/5/2 8/8/4 11/11/4 6/6/2
f 10/10/4 18/32/10 17/33/10 11/11/4
f 9/9/5 12/12/6 15/15/9 10/10/4
f 14/14/8 16/34/10 18/35/10 15/15/9
f 16/36/10 17/37/10 19/38/10 20/39/10
f 17/37/10 18/40/10 21/41/10 19/38/10
f 18/40/10 16/36/10 20/39/10 21/41/10
s 2
f 20/39/11 19/38/11 22/42/11
s 3
f 19/38/12 21/41/12 22/42/12
s 4
f 21/41/13 20/39/13 22/42/13
usemtl cover
s 5
f 23/43/14 24/44/15 25/45/14 26/46/16
s 6
f 25/45/17 24/44/15 27/47/18 28/48/19
f 27/47/18 29/49/20 30/50/21 28/48/19
f 30/50/21 29/49/20 31/51/22 32/52/23
f 33/53/24 26/46/16 25/45/17 34/54/25
f 25/45/17 28/48/19 35/55/10 34/54/25
f 35/55/10 28/48/19 30/50/21 36/56/26
f 30/50/21 32/52/23 37/57/27 36/56/26
f 33/53/24 34/54/25 38/58/28 39/59/29
f 38/58/30 34/54/25 35/55/10 40/60/31
f 35/55/10 36/56/26 41/61/32 40/60/31
f 41/61/33 36/56/26 37/57/27 42/62/34
f 43/63/35 39/59/29 38/58/30 44/64/36
f 38/58/30 40/60/31 45/65/37 44/64/36
f 45/65/37 40/60/31 41/61/33 46/66/38
f 41/61/33 42/62/34 47/67/39 46/66/38
usemtl Pine
s 7
f 48/68/40 49/69/41 50/70/42 51/71/43
f 52/72/44 53/73/45 48/68/40 51/71/43
f 54/74/46 49/69/41 48/68/40 55/75/47
f 48/68/40 53/73/45 56/76/48 55/75/47
s 8
f 57/77/49 58/78/50 59/79/51 60/80/52
f 61/81/53 62/82/54 57/77/49 60/80/52
f 63/83/10 58/78/50 57/77/49 64/84/10
f 57/77/49 62/82/54 65/85/10 64/84/10
s 9
f 66/86/55 67/87/56 68/88/57 69/89/58
f 70/90/59 71/91/60 66/86/55 69/89/58
f 72/92/10 67/87/56 66/86/55 73/93/10
f 66/86/55 71/91/60 74/94/10 73/93/10
s 10
f 75/95/61 76/96/62 77/97/63 78/98/64
f 79/99/65 80/100/66 75/95/61 78/98/64
f 81/101/10 76/96/62 75/95/61 82/102/67
f 75/95/61 80/100/66 83/103/10 82/102/67
s 11
f 84/104/68 85/105/69 86/106/70 87/107/71
f 88/108/72 89/109/73 84/104/68 87/107/71
f 90/110/10 85/105/69 84/104/68 91/111/10
f 84/104/68 89/109/73 92/112/10 91/111/10
s 12
f 93/113/74 94/114/75 95/115/76 96/116/77
f 97/117/78 98/118/79 93/113/74 96/116/77
f 99/119/10 94/114/75 93/113/74 100/120/10
f 93/113/74 98/118/79 101/121/10 100/120/10
s 13
f 102/122/80 103/123/81 104/124/82 105/125/83
f 106/126/84 107/127/85 102/122/80 105/125/83
f 108/128/10 103/123/81 102/122/80 109/129/10
f 102/122/80 107/127/85 110/130/10 109/129/10
s 14
f 111/131/86 112/132/87 113/133/88 114/134/89
f 115/135/90 116/136/91 111/131/86 114/134/89
f 117/137/67 112/132/87 111/131/86 118/138/10
f 111/131/86 116/136/91 119/139/10 118/138/10
s 15
f 120/140/92 121/141/93 122/142/94 123/143/95
f 124/144/96 125/145/97 120/140/92 123/143/95
f 126/146/67 121/141/93 120/140/92 127/147/10
f 120/140/92 125/145/97 128/148/10 127/147/10
s 16
f 129/149/98 130/150/99 131/151/100 132/152/101
f 133/153/102 134/154/103 129/149/98 132/152/101
f 135/155/10 130/150/99 129/149/98 136/156/10
f 129/149/98 134/154/103 137/157/104 136/156/10
s 17
f 138/158/105 139/159/106 140/160/107 141/161/108
f 142/162/109 143/163/110 138/158/105 141/161/108
f 144/164/10 139/159/106 138/158/105 145/165/10
f 138/158/105 143/163/110 146/166/67 145/165/10
s 18
f 147/167/111 148/168/112 149/169/113 150/170/114
f 151/171/115 152/172/116 147/167/111 150/170/114
f 153/173/10 148/168/112 147/167/111 154/174/10
f 147/167/111 152/172/116 155/175/117 154/174/10
s 19
f 156/176/118 157/177/119 158/178/120 159/179/121
f 160/180/122 161/181/123 156/176/118 159/179/121
f 162/182/10 157/177/119 156/176/118 163/183/10
f 156/176/118 161/181/123 164/184/104 163/183/10
s 20
f 165/185/124 166/186/125 167/187/126 168/188/127
f 169/189/128 170/190/129 165/185/124 168/188/127
f 171/191/130 166/186/125 165/185/124 172/192/131
f 165/185/124 170/190/129 173/193/132 172/192/131
s 21
f 174/194/133 175/195/134 176/196/135 177/197/136
f 178/198/137 179/199/138 174/194/133 177/197/136
f 180/200/139 175/195/134 174/194/133 181/201/140
f 174/194/133 179/199/138 182/202/141 181/201/140
s 22
f 183/203/142 184/204/143 185/205/144 186/206/145
f 187/207/146 188/208/147 183/203/142 186/206/145
f 189/209/148 184/204/143 183/203/142 190/210/149
f 183/203/142 188/208/147 191/211/150 190/210/149
s 23
f 192/212/151 193/213/152 194/214/153 195/215/154
f 196/216/155 197/217/156 192/212/151 195/215/154
f 198/218/157 193/213/152 192/212/151 199/219/158
f 192/212/151 197/217/156 200/220/159 199/219/158
s 24
f 201/221/160 202/222/161 203/223/162 204/224/163
f 205/225/164 206/226/165 201/221/160 204/224/163
f 207/227/166 202/222/161 201/221/160 208/228/167
f 201/221/160 206/226/165 209/229/168 208/228/167
s 25
f 210/230/169 211/231/170 212/232/171 213/233/172
f 214/234/173 215/235/174 210/230/169 213/233/172
f 216/236/175 211/231/170 210/230/169 217/237/176
f 210/230/169 215/235/174 218/238/177 217/237/176
s 26
f 219/239/178 220/240/179 221/241/180 222/242/181
f 223/243/182 224/244/183 219/239/178 222/242/181
f 225/245/184 220/240/179 219/239/178 226/246/185
f 219/239/178 224/244/183 227/247/186 226/246/185
