# Blender v2.79 (sub 0) OBJ File: ''
# www.blender.org
mtllib triangle_spikes.mtl
o Triangle.002
v 1.894480 0.006266 -0.947526
v 2.007063 0.006266 -1.142526
v 2.119646 0.006266 -0.947526
v 2.131967 0.016266 -0.946186
v 2.012063 0.016266 -1.153866
v 2.012063 0.996265 -1.153866
v 2.131967 0.996265 -0.946186
v 2.002063 0.016266 -1.153866
v 1.882159 0.016266 -0.946186
v 1.882159 0.996265 -0.946186
v 2.002063 0.996265 -1.153866
v 1.887159 0.016266 -0.937526
v 2.126967 0.016266 -0.937526
v 2.126967 0.996265 -0.937526
v 1.887159 0.996265 -0.937526
v 2.119646 1.006265 -0.947526
v 2.007063 1.006265 -1.142526
v 1.894480 1.006265 -0.947526
v 2.007063 1.006265 -1.122526
v 2.102326 1.006265 -0.957526
v 1.911800 1.006265 -0.957526
v 2.007063 0.956265 -1.012526
v 2.007063 1.335503 -0.786784
v 2.232805 1.335503 -1.012526
v 2.007063 1.046260 -1.012526
v 2.007063 1.335503 -1.238267
v 1.781321 1.335503 -1.012526
v 2.087165 1.385503 -0.932949
v 2.086640 1.385503 -1.092627
v 2.007063 1.096260 -1.012526
v 1.926961 1.385503 -1.092102
v 1.927486 1.385503 -0.932424
v 1.994486 1.066140 -0.652555
v 2.226035 1.214388 -0.814809
v 2.007063 0.996260 -1.012526
v 2.006375 1.362637 -0.992828
v 1.774826 1.214388 -0.830573
v 2.313625 1.066140 -0.823430
v 2.287244 1.214388 -1.104934
v 2.007063 0.996260 -1.012526
v 2.023839 1.362637 -1.002178
v 2.050220 1.214388 -0.720673
v 2.323106 1.066140 -1.185310
v 2.065442 1.214388 -1.301718
v 2.024357 1.362637 -1.021981
v 2.282021 1.214388 -0.905573
v 2.013352 1.066140 -1.372661
v 1.784672 1.214388 -1.206388
v 2.007063 0.996260 -1.012526
v 2.007407 1.362637 -1.032233
v 2.236087 1.214388 -1.198505
v 1.697246 1.066140 -1.196240
v 1.728538 1.214388 -0.915239
v 2.007063 0.996260 -1.012526
v 1.990109 1.362637 -1.022578
v 1.958817 1.214388 -1.303580
v 1.694085 1.066140 -0.834249
v 1.953742 1.214388 -0.722358
v 1.989936 1.362637 -1.002770
v 1.730280 1.214388 -1.114661
v 2.007063 1.066140 -0.652335
v 2.232805 1.214388 -0.822575
v 2.007063 1.362637 -0.992816
v 1.781321 1.214388 -0.822575
v 1.924465 0.991324 -0.941726
v 1.965764 0.991324 -0.941726
v 1.965764 0.981565 -0.971227
v 1.924465 0.991324 -0.971227
v 2.007063 0.991324 -0.941726
v 2.007063 0.983383 -0.958887
v 2.048362 0.991324 -0.941726
v 2.048362 0.981565 -0.971227
v 2.089661 0.991324 -0.941726
v 2.089661 0.991324 -0.971227
v 1.924465 0.991324 -1.012526
v 1.953424 0.983383 -1.012526
v 2.007063 0.992811 -1.012526
v 2.060702 0.983383 -1.012526
v 2.089661 0.991324 -1.012526
v 1.965764 0.981565 -1.053825
v 1.950284 0.991324 -1.053825
v 2.007063 0.983383 -1.066164
v 2.048362 0.981565 -1.053825
v 2.063842 0.991324 -1.053825
v 1.976824 0.991324 -1.095123
v 1.982581 0.991324 -1.095123
v 2.007063 0.991324 -1.095123
v 2.031545 0.991324 -1.095123
v 2.037302 0.991324 -1.095123
vt 0.794600 0.835600
vt 0.704600 0.991500
vt 0.614600 0.835600
vt 0.209500 0.022800
vt 0.401200 0.022800
vt 0.401200 0.806300
vt 0.209500 0.806300
vt 0.409200 0.022800
vt 0.600900 0.022700
vt 0.600900 0.806300
vt 0.409200 0.806300
vt 0.608900 0.022700
vt 0.800600 0.022700
vt 0.800600 0.806300
vt 0.608900 0.806300
vt 0.201500 0.022800
vt 0.205500 0.010700
vt 0.405200 0.010700
vt 0.604900 0.010700
vt 0.205500 0.818400
vt 0.201500 0.806300
vt 0.405200 0.818400
vt 0.604900 0.818400
vt 0.395300 0.011400
vt 0.215300 0.011400
vt 0.595100 0.011400
vt 0.415000 0.011400
vt 0.794800 0.011400
vt 0.614800 0.011400
vt 0.395300 0.817600
vt 0.215300 0.817600
vt 0.595100 0.817600
vt 0.415000 0.817600
vt 0.794800 0.817600
vt 0.614800 0.817600
vt 0.511500 0.990100
vt 0.421300 0.833800
vt 0.434100 0.841200
vt 0.511500 0.975400
vt 0.601700 0.833800
vt 0.589000 0.841200
vt 0.511500 0.885900
vt 0.010100 0.989900
vt 0.010100 0.010100
vt 0.500000 0.500000
vt 0.989900 0.010100
vt 0.989900 0.989900
vt 0.010100 0.989900
vt 0.010100 0.010100
vt 0.500000 0.500000
vt 0.989900 0.010100
vt 0.989900 0.989900
vt 0.010100 0.989900
vt 0.010100 0.010100
vt 0.500000 0.500000
vt 0.989900 0.010100
vt 0.989900 0.989900
vt 0.010100 0.989900
vt 0.010100 0.010100
vt 0.500000 0.500000
vt 0.989900 0.010100
vt 0.989900 0.989900
vt 0.010100 0.989900
vt 0.010100 0.010100
vt 0.989900 0.010100
vt 0.989900 0.989900
vt 0.010100 0.989900
vt 0.010100 0.010100
vt 0.500000 0.500000
vt 0.989900 0.010100
vt 0.989900 0.989900
vt 0.010100 0.989900
vt 0.010100 0.010100
vt 0.500000 0.500000
vt 0.989900 0.010100
vt 0.989900 0.989900
vt 0.010100 0.989900
vt 0.010100 0.010100
vt 0.989900 0.010100
vt 0.989900 0.989900
vt 0.010100 0.989900
vt 0.010100 0.010100
vt 0.989900 0.010100
vt 0.989900 0.989900
vt 0.000500 0.000500
vt 0.250200 0.000500
vt 0.250200 0.192600
vt 0.000500 0.192600
vt 0.500000 0.000500
vt 0.500000 0.112300
vt 0.749800 0.000500
vt 0.749800 0.192600
vt 0.999500 0.000500
vt 0.999500 0.192600
vt 0.000500 0.461600
vt 0.175600 0.461600
vt 0.500000 0.461600
vt 0.824400 0.461600
vt 0.999500 0.461600
vt 0.250200 0.730500
vt 0.156600 0.730500
vt 0.500000 0.810900
vt 0.749800 0.730500
vt 0.843400 0.730500
vt 0.317100 0.999500
vt 0.351900 0.999500
vt 0.500000 0.999500
vt 0.648100 0.999500
vt 0.682900 0.999500
vn 0.0000 -1.0000 -0.0000
vn 0.8660 -0.0000 -0.5000
vn -0.8660 -0.0000 -0.5000
vn -0.0001 -0.0001 1.0000
vn 0.0002 -0.0001 1.0000
vn 0.0001 0.0001 1.0000
vn -0.0002 0.0001 1.0000
vn 0.0000 1.0000 0.0000
vn -0.5826 0.7399 0.3363
vn 0.5825 0.7399 0.3363
vn 0.0000 0.7399 -0.6727
vn 0.0000 0.6153 -0.7883
vn -0.7883 0.6153 -0.0000
vn 0.0000 0.6153 0.7883
vn 0.7883 0.6153 0.0000
vn -0.6609 0.3636 -0.6565
vn -0.6565 0.3636 0.6609
vn 0.6609 0.3636 0.6565
vn 0.6565 0.3636 -0.6609
vn 0.0067 0.9817 -0.1903
vn -0.8020 0.4640 0.3763
vn -0.0327 -0.3507 0.9359
vn -0.0349 -0.0537 0.9979
vn 0.7737 0.4640 0.4313
vn -0.1621 0.9817 -0.1000
vn -0.0700 0.4640 0.8831
vn 0.7971 -0.3505 0.4917
vn 0.8499 -0.0537 0.5242
vn 0.7578 0.4640 -0.4588
vn -0.1671 0.9817 0.0914
vn 0.7327 0.4640 0.4979
vn 0.8217 -0.3507 -0.4492
vn 0.8762 -0.0537 -0.4790
vn -0.0236 0.4640 -0.8855
vn -0.0033 0.9817 0.1904
vn 0.7953 0.4640 -0.3902
vn 0.0164 -0.3505 -0.9364
vn 0.0174 -0.0537 -0.9984
vn -0.7812 0.4640 -0.4178
vn 0.1638 0.9817 0.0971
vn 0.0545 0.4640 -0.8842
vn -0.8055 -0.3507 -0.4777
vn -0.8589 -0.0537 -0.5093
vn -0.7496 0.4640 0.4720
vn 0.1655 0.9817 -0.0943
vn -0.7413 0.4640 -0.4850
vn -0.8138 -0.3505 0.4635
vn -0.8677 -0.0537 0.4942
vn 0.0391 0.4640 0.8850
vn -0.0000 0.9817 -0.1905
vn -0.7883 0.4640 0.4040
vn 0.0000 -0.3507 0.9365
vn 0.0000 -0.0537 0.9986
vn 0.7883 0.4640 0.4040
vn 0.1158 0.9800 -0.1621
vn 0.0745 0.9628 -0.2598
vn 0.1809 0.9795 -0.0890
vn -0.3673 0.8407 0.3978
vn 0.0000 0.9350 -0.3547
vn -0.0000 0.8598 0.5106
vn -0.0745 0.9628 -0.2598
vn 0.3978 0.8407 0.3674
vn -0.1158 0.9800 -0.1621
vn -0.1809 0.9795 -0.0890
vn 0.2941 0.9544 0.0502
vn -0.5106 0.8598 -0.0001
vn 0.5569 0.8306 0.0000
vn -0.2941 0.9544 0.0502
vn 0.3659 0.9187 0.1488
vn 0.3780 0.9026 0.2061
vn 0.0950 0.9897 0.1067
vn -0.0000 0.9956 0.0940
vn 0.1337 0.9820 -0.1337
vn -0.3059 0.9194 0.2472
vn -0.3781 0.9026 0.2061
vn 0.3969 0.8638 0.3104
vn 0.1662 0.9463 0.2773
vn -0.0000 0.9686 0.2488
vn -0.1662 0.9463 0.2773
vn -0.3969 0.8638 0.3104
usemtl Pot
s 1
f 1/1/1 2/2/1 3/3/1
f 4/4/2 5/5/2 6/6/2 7/7/2
f 8/8/3 9/9/3 10/10/3 11/11/3
f 12/12/4 13/13/5 14/14/6 15/15/7
f 4/4/2 13/16/5 3/17/1
f 2/18/1 8/8/3 5/5/2
f 12/12/4 9/9/3 1/19/1
f 7/7/2 16/20/8 14/21/6
f 11/11/3 17/22/8 6/6/2
f 15/15/7 18/23/8 10/10/3
f 2/24/1 5/5/2 4/4/2 3/25/1
f 1/26/1 9/9/3 8/8/3 2/27/1
f 3/28/1 13/13/5 12/12/4 1/29/1
f 6/6/2 17/30/8 16/31/8 7/7/2
f 7/7/2 14/21/6 13/16/5 4/4/2
f 5/5/2 8/8/3 11/11/3 6/6/2
f 10/10/3 18/32/8 17/33/8 11/11/3
f 9/9/3 12/12/4 15/15/7 10/10/3
f 14/14/6 16/34/8 18/35/8 15/15/7
f 16/36/8 17/37/8 19/38/8 20/39/8
f 17/37/8 18/40/8 21/41/8 19/38/8
f 18/40/8 16/36/8 20/39/8 21/41/8
s 2
f 20/39/9 19/38/9 22/42/9
s 3
f 19/38/10 21/41/10 22/42/10
s 4
f 21/41/11 20/39/11 22/42/11
usemtl Spikes
s 5
f 23/43/12 24/44/13 25/45/8
f 24/44/13 26/46/14 25/45/8
f 26/46/14 27/47/15 25/45/8
f 27/47/15 23/43/12 25/45/8
s 6
f 28/48/16 29/49/17 30/50/8
f 29/49/17 31/51/18 30/50/8
f 31/51/18 32/52/19 30/50/8
f 32/52/19 28/48/16 30/50/8
s 7
f 33/53/20 34/54/21 35/55/22
f 34/54/21 36/56/23 35/55/22
f 36/56/23 37/57/24 35/55/22
f 37/57/24 33/53/20 35/55/22
s 8
f 38/58/25 39/59/26 40/60/27
f 39/59/26 41/61/28 40/60/27
f 41/61/28 42/62/29 40/60/27
f 42/62/29 38/58/25 40/60/27
s 9
f 43/63/30 44/64/31 40/60/32
f 44/64/31 45/65/33 40/60/32
f 45/65/33 46/66/34 40/60/32
f 46/66/34 43/63/30 40/60/32
s 10
f 47/67/35 48/68/36 49/69/37
f 48/68/36 50/70/38 49/69/37
f 50/70/38 51/71/39 49/69/37
f 51/71/39 47/67/35 49/69/37
s 11
f 52/72/40 53/73/41 54/74/42
f 53/73/41 55/75/43 54/74/42
f 55/75/43 56/76/44 54/74/42
f 56/76/44 52/72/40 54/74/42
s 12
f 57/77/45 58/78/46 54/74/47
f 58/78/46 59/79/48 54/74/47
f 59/79/48 60/80/49 54/74/47
f 60/80/49 57/77/45 54/74/47
s 13
f 61/81/50 62/82/51 35/55/52
f 62/82/51 63/83/53 35/55/52
f 63/83/53 64/84/54 35/55/52
f 64/84/54 61/81/50 35/55/52
usemtl cover
s 14
f 65/85/55 66/86/56 67/87/55 68/88/57
s 15
f 67/87/58 66/86/56 69/89/59 70/90/60
f 69/89/59 71/91/61 72/92/62 70/90/60
f 72/92/62 71/91/61 73/93/63 74/94/64
f 75/95/65 68/88/57 67/87/58 76/96/66
f 67/87/58 70/90/60 77/97/8 76/96/66
f 77/97/8 70/90/60 72/92/62 78/98/67
f 72/92/62 74/94/64 79/99/68 78/98/67
f 75/95/65 76/96/66 80/100/69 81/101/70
f 80/100/71 76/96/66 77/97/8 82/102/72
f 77/97/8 78/98/67 83/103/73 82/102/72
f 83/103/74 78/98/67 79/99/68 84/104/75
f 85/105/76 81/101/70 80/100/71 86/106/77
f 80/100/71 82/102/72 87/107/78 86/106/77
f 87/107/78 82/102/72 83/103/74 88/108/79
f 83/103/74 84/104/75 89/109/80 88/108/79
