# 3ds Max Wavefront OBJ Exporter v0.97b - (c)2007 guruware
# File Created: 30.04.2011 11:59:06

#
# object box_closed
#

v  -0.6302 1.0000 17.9996
v  -1.0000 1.0000 36.5000
v  -40.0000 0.0000 37.5000
v  -40.0000 0.0000 -0.0000
v  -17.9989 48.1166 0.7383
v  -39.0000 49.0000 1.0000
v  -40.0000 50.0000 37.5000
v  0.0000 49.5143 37.5000
v  0.0000 24.7572 38.2795
v  -40.8314 25.0000 38.2795
v  0.0000 0.0000 37.5000
v  40.8314 25.0000 -0.0000
v  40.8314 25.0000 38.2795
v  40.0000 0.0000 37.5000
v  40.0000 0.0000 -0.0000
v  0.0000 24.7572 -38.2795
v  40.8314 25.0000 -38.2795
v  40.0000 0.0000 -37.5000
v  0.0000 0.0000 -37.5000
v  -40.8314 25.0000 -0.0000
v  -40.8314 25.0000 -38.2795
v  -40.0000 0.0000 -37.5000
v  -1.0000 1.0000 -36.5000
v  -0.6302 1.0000 -17.9996
v  40.0000 50.0000 -37.5000
v  0.0000 49.5143 -37.5000
v  18.0000 48.5968 0.4849
v  40.0000 50.0000 -0.0000
v  40.0000 50.0000 37.5000
v  39.0000 49.0000 1.0000
v  17.9989 48.1166 0.7383
v  -40.0000 50.0000 -0.0000
v  -0.2078 0.6698 17.9991
v  -0.2078 0.6698 -17.9991
v  -40.0000 50.0000 -37.5000
v  -18.0000 48.5968 0.4849
# 36 vertices

vn -0.3157 -0.9489 -0.0031
vn -0.4213 -0.9069 -0.0105
vn 0.0256 -0.9997 -0.0000
vn 0.0255 -0.9997 -0.0000
vn 0.0265 0.9983 -0.0509
vn 0.4463 0.8947 -0.0193
vn 0.0294 0.9992 -0.0266
vn 0.0000 0.9993 -0.0374
vn 0.0000 -0.0001 1.0000
vn 0.0001 0.0001 1.0000
vn 0.0000 -0.0312 0.9995
vn -0.0001 -0.0314 0.9995
vn 1.0000 0.0000 -0.0000
vn 0.9994 -0.0332 -0.0000
vn 0.0000 -0.0001 -1.0000
vn -0.0001 0.0001 -1.0000
vn 0.0000 -0.0312 -0.9995
vn 0.0001 -0.0314 -0.9995
vn -1.0000 0.0000 -0.0000
vn -0.9994 -0.0332 -0.0000
vn -0.4232 -0.9060 0.0086
vn -0.3169 -0.9484 0.0053
vn -0.0294 0.9994 0.0199
vn 0.0060 0.9997 0.0240
vn -0.0247 0.9995 0.0180
vn -0.0637 0.9980 -0.0000
vn -0.0294 0.9992 -0.0266
vn -0.7071 0.7071 -0.0000
vn -0.4463 0.8947 -0.0193
vn -0.0157 0.4721 0.8814
vn -0.0151 0.4665 0.8844
vn -0.0308 0.7194 0.6939
vn -0.0308 0.7220 0.6912
vn 0.7071 0.7071 -0.0000
vn 0.0000 -1.0000 -0.0000
vn -0.2868 -0.9578 -0.0188
vn -0.3414 -0.9398 -0.0146
vn -0.0139 -0.9999 -0.0036
vn -0.0265 0.9983 -0.0509
vn 0.0001 -0.0313 0.9995
vn -0.0001 0.0002 1.0000
vn -0.0001 -0.0313 -0.9995
vn 0.0001 0.0002 -1.0000
vn -0.0119 -0.9999 0.0099
vn -0.3328 -0.9429 0.0119
vn -0.2761 -0.9607 0.0289
vn 0.0121 0.9999 -0.0000
vn 0.0366 0.9990 0.0261
vn 0.0398 0.9983 0.0430
vn 0.0157 0.4721 0.8814
vn 0.0308 0.7220 0.6912
vn 0.0308 0.7194 0.6939
vn 0.0151 0.4665 0.8844
vn 0.0000 -0.7071 0.7071
vn 0.0000 -0.7071 -0.7071
vn 0.0004 0.0312 0.9995
vn 0.0000 0.0314 0.9995
vn 0.9994 0.0332 -0.0000
vn -0.0004 0.0312 -0.9995
vn 0.0000 0.0314 -0.9995
vn -0.9994 0.0332 -0.0000
vn -0.0004 0.0312 0.9995
vn 0.0004 0.0312 -0.9995
# 63 vertex normals

vt 0.1538 0.5299 0.0000
vt 0.1541 0.4765 0.0000
vt 0.2669 0.4725 0.0000
vt 0.2681 0.5809 0.0000
vt 0.2037 0.8272 0.0000
vt 0.2641 0.8274 0.0000
vt 0.2681 0.9325 0.0000
vt 0.1528 0.9337 0.0000
vt 0.3619 0.8171 0.0000
vt 0.3612 0.7012 0.0000
vt 0.4337 0.7012 0.0000
vt 0.4337 0.8171 0.0000
vt 0.5176 0.5791 0.0000
vt 0.5176 0.4704 0.0000
vt 0.5901 0.4704 0.0000
vt 0.5901 0.5791 0.0000
vt 0.5165 0.8158 0.0000
vt 0.5158 0.6999 0.0000
vt 0.5883 0.6999 0.0000
vt 0.5883 0.8158 0.0000
vt 0.3635 0.5814 0.0000
vt 0.3635 0.4728 0.0000
vt 0.4359 0.4728 0.0000
vt 0.4359 0.5814 0.0000
vt 0.2688 0.6894 0.0000
vt 0.1560 0.6873 0.0000
vt 0.1547 0.6340 0.0000
vt 0.0355 0.7178 0.0000
vt 0.1509 0.7168 0.0000
vt 0.1000 0.8267 0.0000
vt 0.0363 0.8260 0.0000
vt 0.5901 0.6878 0.0000
vt 0.5176 0.6878 0.0000
vt 0.4359 0.6901 0.0000
vt 0.3635 0.6901 0.0000
vt 0.0376 0.9345 0.0000
vt 0.0397 0.8294 0.0000
vt 0.1001 0.8281 0.0000
vt 0.2675 0.8240 0.0000
vt 0.0352 0.4743 0.0000
vt 0.1507 0.4732 0.0000
vt 0.1522 0.5298 0.0000
vt 0.0361 0.5830 0.0000
vt 0.4337 0.9330 0.0000
vt 0.3612 0.9330 0.0000
vt 0.5883 0.9317 0.0000
vt 0.5158 0.9317 0.0000
vt 0.0371 0.6916 0.0000
vt 0.1531 0.6340 0.0000
vt 0.1526 0.6907 0.0000
vt 0.2664 0.7158 0.0000
vt 0.2038 0.8258 0.0000
vt 0.2888 0.7012 0.0000
vt 0.2902 0.8171 0.0000
vt 0.4452 0.4704 0.0000
vt 0.4452 0.5791 0.0000
vt 0.4434 0.6999 0.0000
vt 0.4448 0.8158 0.0000
vt 0.2910 0.4728 0.0000
vt 0.2910 0.5814 0.0000
vt 0.4452 0.6878 0.0000
vt 0.2910 0.6901 0.0000
vt 0.2888 0.9330 0.0000
vt 0.4434 0.9317 0.0000
# 64 texture coords

g box_closed
s 1
f 1/1/1 2/2/2 3/3/3 4/4/4 
f 5/5/5 6/6/6 7/7/7 8/8/8 
s 2
f 9/9/9 10/10/10 3/11/11 11/12/12 
s 4
f 12/13/13 13/14/13 14/15/14 15/16/14 
s 2
f 16/17/15 17/18/16 18/19/17 19/20/18 
s 4
f 20/21/19 21/22/19 22/23/20 4/24/20 
s 1
f 22/25/3 23/26/21 24/27/22 4/4/4 
s 8
f 25/28/23 26/29/24 27/30/25 28/31/26 
s 4
f 18/32/14 17/33/13 12/13/13 15/16/14 
f 3/34/20 10/35/19 20/21/19 4/24/20 
s 1
f 29/36/27 28/31/28 30/37/29 
s 2
f 27/30/30 31/38/31 30/37/32 28/31/33 
s 1
f 32/39/34 7/7/7 6/6/6 
f 14/40/35 11/41/36 33/42/37 15/43/38 
f 29/36/27 30/37/29 31/38/39 8/8/8 
s 2
f 14/44/40 13/45/41 9/9/9 11/12/12 
f 22/46/42 21/47/43 16/17/15 19/20/18 
s 1
f 18/48/44 15/43/38 34/49/45 19/50/46 
s 8
f 35/51/47 32/39/48 36/52/49 26/29/24 
s 2
f 36/52/50 32/39/51 6/6/52 5/5/53 
s 8
f 22/25/54 19/50/54 23/26/54 
s 1
f 34/49/45 24/27/22 23/26/21 19/50/46 
f 33/42/37 11/41/36 2/2/2 1/1/1 
s 8
f 11/41/55 3/3/55 2/2/55 
f 27/30/25 26/29/24 36/52/49 
s 1
f 31/38/39 5/5/5 8/8/8 
s 2
f 5/5/53 31/38/31 27/30/30 36/52/50 
s 1
f 15/43/38 33/42/37 34/49/45 
f 4/4/4 24/27/22 1/1/1 
f 1/1/1 24/27/22 34/49/45 33/42/37 
s 2
f 7/53/56 10/10/10 9/9/9 8/54/57 
s 4
f 29/55/58 13/14/13 12/13/13 28/56/58 
s 2
f 25/57/59 17/18/16 16/17/15 26/58/60 
s 4
f 35/59/61 21/22/19 20/21/19 32/60/61 
f 25/61/58 28/56/58 12/13/13 17/33/13 
f 7/62/61 32/60/61 20/21/19 10/35/19 
s 2
f 29/63/62 8/54/57 9/9/9 13/45/41 
f 35/64/63 26/58/60 16/17/15 21/47/43 
# 30 polygons - 8 triangles

